<svg version="1.1" xmlns="http://www.w3.org/2000/svg" viewBox="0 0 1893.0488287077967 652.8439737958342" width="1893.0488287077967" height="652.8439737958342">
  <!-- svg-source:excalidraw -->
  
  <defs>
    <style>
      @font-face {
        font-family: "Virgil";
        src: url("https://excalidraw.com/Virgil.woff2");
      }
      @font-face {
        font-family: "Cascadia";
        src: url("https://excalidraw.com/Cascadia.woff2");
      }
    </style>
  </defs>
  <rect x="0" y="0" width="1893.0488287077967" height="652.8439737958342" fill="#ffffff"></rect><g transform="translate(14.024414353898692 523.3439737958342) rotate(0 40 13)"><text x="0" y="21" font-family="Chinese, Segoe UI Emoji" font-size="20px" fill="#495057" text-anchor="start" style="white-space: pre;" direction="ltr">产品经理</text></g><g stroke-linecap="round"><g transform="translate(26.237193705391064 512.6910477858564) rotate(0 25.7872206485074 -21.777916348211647)"><path d="M0 0 C0.92 -4.85, 1.58 -21.76, 5.52 -29.07 C9.46 -36.38, 17.61 -43.34, 23.65 -43.87 C29.69 -44.4, 37.51 -39.05, 41.78 -32.24 C46.05 -25.43, 56.23 -8.39, 49.27 -3.02 C42.31 2.36, 8.21 -0.5, 0 0 M0 0 C0.92 -4.85, 1.58 -21.76, 5.52 -29.07 C9.46 -36.38, 17.61 -43.34, 23.65 -43.87 C29.69 -44.4, 37.51 -39.05, 41.78 -32.24 C46.05 -25.43, 56.23 -8.39, 49.27 -3.02 C42.31 2.36, 8.21 -0.5, 0 0" stroke="#495057" stroke-width="2" fill="none"></path></g></g><g stroke-linecap="round" transform="translate(38.69106454170719 446) rotate(0 12.612971703843186 11.03635024086293)"><path d="M20.72 2.58 C22.79 4.1, 24.57 6.79, 25.03 9.12 C25.5 11.45, 24.89 14.51, 23.54 16.55 C22.18 18.6, 19.47 20.6, 16.93 21.41 C14.39 22.22, 10.84 22.22, 8.3 21.41 C5.76 20.6, 3.04 18.6, 1.69 16.55 C0.34 14.51, -0.28 11.45, 0.19 9.12 C0.66 6.79, 2.44 4.1, 4.51 2.58 C6.58 1.06, 9.91 0, 12.61 0 C15.32 0, 18.65 1.06, 20.72 2.58" stroke="#495057" stroke-width="2" fill="none"></path></g><g stroke-linecap="round" transform="translate(10 305.5711189739013) rotate(0 48.02441435389869 47.10086792401603)"><path d="M-1.76 1.55 L96.75 0.4 L95.21 93.53 L0.85 92.64" stroke="none" stroke-width="0" fill="#eeeeee"></path><path d="M-0.39 0.29 C27.13 -1.22, 55.65 1.56, 94.29 -0.56 M-0.16 -0.18 C25.27 -0.75, 48.96 -0.46, 95.64 -0.57 M94.54 1.9 C96.43 26.25, 95.23 47.83, 96.32 94.32 M96.09 0.17 C95.97 36.3, 95.89 72.69, 95.86 93.98 M97.86 93.68 C65.75 93.74, 37.09 92.81, 0.67 94.66 M95.76 94.78 C68.36 93.07, 40.45 94.04, 0.41 93.62 M1.49 93.09 C-1.69 68.9, 1.96 40.8, 0.54 -1.01 M0.98 94.1 C-0.33 60.37, 0.79 26.96, -0.18 0.25" stroke="#000000" stroke-width="1" fill="none"></path></g><g transform="translate(14.524414353898692 336.5882540318462) rotate(0 42.77500000000032 14.5)"><text x="42.7750000000003" y="23.0000000000002" font-family="Chinese, Segoe UI Emoji" font-size="21.571416782076398px" fill="#000000" text-anchor="middle" style="white-space: pre;" direction="ltr">提出需求</text></g><g stroke-linecap="round" transform="translate(198 302.5711189739013) rotate(0 48.02441435389869 47.10086792401603)"><path d="M1.49 -0.52 L97.01 0.2 L95.45 94.68 L-0.31 95.8" stroke="none" stroke-width="0" fill="#eeeeee"></path><path d="M1.17 -0.35 C23.41 0.49, 48.71 0.01, 96.64 1.69 M0.31 -0.36 C24.88 0.51, 48.91 -0.87, 95.2 -0.85 M94.64 -1.81 C96.34 36.8, 97.19 75.54, 94.15 93.74 M95.2 -0.13 C96.23 22.61, 96.4 46.55, 95.1 93.3 M95.55 92.86 C66 94.75, 37.61 94.21, 1.5 95.92 M95.1 94.88 C73.17 95.49, 50.35 94.23, -0.36 94.99 M-1.55 92.47 C1.97 60.02, -1.18 25.69, 0.09 0.33 M-0.46 94.11 C0.1 56.46, 0.38 20.14, -0.6 -0.03" stroke="#000000" stroke-width="1" fill="none"></path></g><g transform="translate(202.299414353899 333.5882540318462) rotate(0 43 14)"><text x="43" y="22" font-family="Chinese, Segoe UI Emoji" font-size="21.571416782076398px" fill="#000000" text-anchor="middle" style="white-space: pre;" direction="ltr">需求评估</text></g><g stroke-linecap="round" transform="translate(376 299.5711189739013) rotate(0 48.02441435389869 47.10086792401603)"><path d="M-0.1 1.89 L96.37 -0.49 L98.03 95.31 L-1.61 92.35" stroke="none" stroke-width="0" fill="#eeeeee"></path><path d="M-0.51 -1.37 C20.2 -0.77, 43.06 1.08, 94.23 1.41 M-0.35 -0.47 C25.06 0.12, 48.68 1.47, 95.79 0.48 M95.74 1.6 C95.45 27.69, 96.32 58.73, 97.12 95.44 M96.13 0.56 C96.36 38.1, 96.73 74.99, 95.92 93.59 M94.79 94.97 C73.43 95.61, 55.1 95.92, -0.01 94.2 M95.89 93.21 C59.54 94.09, 23.49 93.21, -0.58 93.6 M-1.78 93.58 C1.06 65.28, 1.54 39.28, -0.96 1.29 M-0.84 95.09 C-0.14 58.62, -0.01 22.72, -0.24 0.2" stroke="#000000" stroke-width="1" fill="none"></path></g><g transform="translate(380.299414353899 330.5882540318462) rotate(0 43 14)"><text x="43" y="22" font-family="Chinese, Segoe UI Emoji" font-size="21.571416782076398px" fill="#000000" text-anchor="middle" style="white-space: pre;" direction="ltr">方案评审</text></g><g transform="translate(199.0244143538987 515.8439737958342) rotate(0 50 13)"><text x="0" y="21" font-family="Chinese, Segoe UI Emoji" font-size="20px" fill="#e67700" text-anchor="start" style="white-space: pre;" direction="ltr">业务负责人</text></g><g stroke-linecap="round"><g transform="translate(221.23719370539106 506.1910477858564) rotate(0 25.7872206485074 -21.777916348211647)"><path d="M0 0 C0.92 -4.85, 1.58 -21.76, 5.52 -29.07 C9.46 -36.38, 17.61 -43.34, 23.65 -43.87 C29.69 -44.4, 37.51 -39.05, 41.78 -32.24 C46.05 -25.43, 56.23 -8.39, 49.27 -3.02 C42.31 2.36, 8.21 -0.5, 0 0 M0 0 C0.92 -4.85, 1.58 -21.76, 5.52 -29.07 C9.46 -36.38, 17.61 -43.34, 23.65 -43.87 C29.69 -44.4, 37.51 -39.05, 41.78 -32.24 C46.05 -25.43, 56.23 -8.39, 49.27 -3.02 C42.31 2.36, 8.21 -0.5, 0 0" stroke="#e67700" stroke-width="2" fill="none"></path></g></g><g stroke-linecap="round" transform="translate(233.6910645417072 439.5) rotate(0 12.612971703843186 11.03635024086293)"><path d="M20.72 2.58 C22.79 4.1, 24.57 6.79, 25.03 9.12 C25.5 11.45, 24.89 14.51, 23.54 16.55 C22.18 18.6, 19.47 20.6, 16.93 21.41 C14.39 22.22, 10.84 22.22, 8.3 21.41 C5.76 20.6, 3.04 18.6, 1.69 16.55 C0.34 14.51, -0.28 11.45, 0.19 9.12 C0.66 6.79, 2.44 4.1, 4.51 2.58 C6.58 1.06, 9.91 0, 12.61 0 C15.32 0, 18.65 1.06, 20.72 2.58" stroke="#e67700" stroke-width="2" fill="none"></path></g><g transform="translate(391.0244143538987 514.8439737958342) rotate(0 40 13)"><text x="0" y="21" font-family="Chinese, Segoe UI Emoji" font-size="20px" fill="#5f3dc4" text-anchor="start" style="white-space: pre;" direction="ltr">评审人员</text></g><g stroke-linecap="round"><g transform="translate(401.23719370539106 503.1910477858564) rotate(0 25.7872206485074 -21.777916348211647)"><path d="M0 0 C0.92 -4.85, 1.58 -21.76, 5.52 -29.07 C9.46 -36.38, 17.61 -43.34, 23.65 -43.87 C29.69 -44.4, 37.51 -39.05, 41.78 -32.24 C46.05 -25.43, 56.23 -8.39, 49.27 -3.02 C42.31 2.36, 8.21 -0.5, 0 0 M0 0 C0.92 -4.85, 1.58 -21.76, 5.52 -29.07 C9.46 -36.38, 17.61 -43.34, 23.65 -43.87 C29.69 -44.4, 37.51 -39.05, 41.78 -32.24 C46.05 -25.43, 56.23 -8.39, 49.27 -3.02 C42.31 2.36, 8.21 -0.5, 0 0" stroke="#5f3dc4" stroke-width="2" fill="none"></path></g></g><g stroke-linecap="round" transform="translate(413.6910645417072 436.5) rotate(0 12.612971703843186 11.03635024086293)"><path d="M20.72 2.58 C22.79 4.1, 24.57 6.79, 25.03 9.12 C25.5 11.45, 24.89 14.51, 23.54 16.55 C22.18 18.6, 19.47 20.6, 16.93 21.41 C14.39 22.22, 10.84 22.22, 8.3 21.41 C5.76 20.6, 3.04 18.6, 1.69 16.55 C0.34 14.51, -0.28 11.45, 0.19 9.12 C0.66 6.79, 2.44 4.1, 4.51 2.58 C6.58 1.06, 9.91 0, 12.61 0 C15.32 0, 18.65 1.06, 20.72 2.58" stroke="#5f3dc4" stroke-width="2" fill="none"></path></g><g stroke-linecap="round"><g transform="translate(107.02441435389869 351.6719868979171) rotate(0 44.7365817512013 0.5460289005191044)"><path d="M-0.66 -0.91 C14.11 -0.48, 73.03 1.62, 87.96 2 M1.2 1.23 C16.38 1.4, 75.64 0.74, 90.13 0.41" stroke="#495057" stroke-width="1" fill="none"></path></g><g transform="translate(107.02441435389869 351.6719868979171) rotate(0 44.7365817512013 0.5460289005191044)"><path d="M60.59 9.38 C70.74 8.55, 76.59 7.3, 90.81 1.5 M61.47 10.62 C72.06 6.31, 81.17 2.91, 90.94 0.05" stroke="#495057" stroke-width="1" fill="none"></path></g><g transform="translate(107.02441435389869 351.6719868979171) rotate(0 44.7365817512013 0.5460289005191044)"><path d="M60.27 -11.14 C70.4 -6.9, 76.32 -3.09, 90.81 1.5 M61.15 -9.9 C71.83 -7.02, 81.06 -3.23, 90.94 0.05" stroke="#495057" stroke-width="1" fill="none"></path></g></g><g stroke-linecap="round"><g transform="translate(295.0244143538987 347.6719868979171) rotate(0 38.94500343944884 -2.016318046674087)"><path d="M0.66 -0.13 C13.45 -0.84, 63.39 -3.42, 76.1 -3.9 M-0.45 -1.24 C12.76 -1.77, 65.58 -1.72, 78.34 -2.31" stroke="#495057" stroke-width="1" fill="none"></path></g><g transform="translate(295.0244143538987 347.6719868979171) rotate(0 38.94500343944884 -2.016318046674087)"><path d="M50.14 7 C57.45 5.52, 65.91 2.54, 79.73 -3.86 M49.94 9.11 C59.2 4.76, 67.53 2.82, 78.59 -2.5" stroke="#495057" stroke-width="1" fill="none"></path></g><g transform="translate(295.0244143538987 347.6719868979171) rotate(0 38.94500343944884 -2.016318046674087)"><path d="M49.74 -13.52 C57.21 -9.9, 65.77 -7.77, 79.73 -3.86 M49.53 -11.4 C58.75 -9.67, 67.21 -5.51, 78.59 -2.5" stroke="#495057" stroke-width="1" fill="none"></path></g></g><g stroke-linecap="round"><g transform="translate(427.0244143538987 298.6719868979171) rotate(0 -91.06432147851217 -37.76299193063733)"><path d="M0.85 0.21 C-13.53 -11.91, -56.41 -73.2, -86.96 -73.74 C-117.52 -74.28, -166.55 -15.06, -182.49 -3.03 M-0.16 -0.73 C-14.55 -13.15, -56.9 -75.48, -87.37 -75.73 C-117.84 -75.98, -167.19 -14.84, -182.98 -2.25" stroke="#c92a2a" stroke-width="1" fill="none"></path></g><g transform="translate(427.0244143538987 298.6719868979171) rotate(0 -91.06432147851217 -37.76299193063733)"><path d="M-169.72 -27.6 C-173.02 -21.78, -178.3 -15.36, -182.2 -3.73 M-169.46 -29.36 C-173.63 -23.36, -174.82 -17.97, -183.31 -2.09" stroke="#c92a2a" stroke-width="1" fill="none"></path></g><g transform="translate(427.0244143538987 298.6719868979171) rotate(0 -91.06432147851217 -37.76299193063733)"><path d="M-155.34 -12.96 C-162.01 -10.61, -170.81 -7.76, -182.2 -3.73 M-155.08 -14.72 C-162.26 -11.89, -166.46 -9.57, -183.31 -2.09" stroke="#c92a2a" stroke-width="1" fill="none"></path></g></g><g transform="translate(382.0244143538987 196.17198689791712) rotate(0 20 13)"><text x="0" y="21" font-family="Chinese, Segoe UI Emoji" font-size="20px" fill="#c92a2a" text-anchor="start" style="white-space: pre;" direction="ltr">打回</text></g><g stroke-linecap="round" transform="translate(556 294.5711189739013) rotate(0 48.02441435389869 47.10086792401603)"><path d="M0.61 -1.59 L94.67 -0.49 L97.69 94.27 L-0.44 93.6" stroke="none" stroke-width="0" fill="#eeeeee"></path><path d="M-0.17 1.14 C32.2 0.5, 61.23 0.24, 94.81 -1.04 M0.97 0.26 C32.28 -0.88, 66.69 -0.14, 96.65 0.08 M96.15 -0.73 C93.45 35.33, 96.38 72, 95.58 95.47 M95.71 -0.82 C97.61 21.37, 96.39 42.24, 95.42 94.32 M94.52 94.35 C75.12 93.81, 56.68 95.31, 0.55 95.56 M96.66 94.55 C62.79 93.6, 28.17 94.77, 0.9 93.26 M-0.62 93.64 C1.16 66.15, 1.03 38.71, 1.24 -1.26 M0.53 93.91 C1.03 61.18, -0.04 27.54, 0.76 0.77" stroke="#000000" stroke-width="1" fill="none"></path></g><g transform="translate(581.799414353899 325.5882540318462) rotate(0 21.5 14)"><text x="21.5" y="22" font-family="Chinese, Segoe UI Emoji" font-size="21.571416782076398px" fill="#000000" text-anchor="middle" style="white-space: pre;" direction="ltr">研发</text></g><g stroke-linecap="round" transform="translate(747 346.5711189739013) rotate(0 48.02441435389869 47.10086792401603)"><path d="M-1.3 -0.98 L94.1 -0.49 L96.65 94.26 L1.06 93.32" stroke="none" stroke-width="0" fill="#eeeeee"></path><path d="M-0.62 -0.56 C27.86 -1.51, 55.29 -1.92, 97.29 -1.26 M0.53 -0.29 C34.08 0.79, 66.87 0.35, 96.81 0.77 M95.56 1.64 C95.37 30.71, 94.69 63.06, 97.3 95 M96.76 0.25 C96.1 29.62, 97.14 58.32, 95.73 94.38 M94.33 94.8 C73.16 92.1, 50.34 95.11, 0.86 95.55 M96.44 93.5 C67.16 94.14, 37.54 94.72, -0.14 93.67 M-1.76 92.35 C1.79 76.39, 2.11 54.49, -0.57 1.26 M1 94.86 C-0.52 68.42, -0.27 44.72, 0.18 -0.71" stroke="#000000" stroke-width="1" fill="none"></path></g><g transform="translate(772.799414353899 377.5882540318462) rotate(0 21.5 14)"><text x="21.5" y="22" font-family="Chinese, Segoe UI Emoji" font-size="21.571416782076398px" fill="#000000" text-anchor="middle" style="white-space: pre;" direction="ltr">测试</text></g><g stroke-linecap="round" transform="translate(744 191.57111897390132) rotate(0 48.02441435389869 47.10086792401603)"><path d="M-0.63 -0.01 L94.46 -1.27 L97.36 95.94 L1.94 95.16" stroke="none" stroke-width="0" fill="#eeeeee"></path><path d="M-0.89 -0.74 C31.58 -1.59, 61.98 -0.23, 94.77 -1.19 M-0.21 -0.26 C28.02 -0.41, 55.8 0.33, 95.74 0.13 M97.2 0.36 C95.15 33.6, 94.37 69.58, 96.08 94.74 M95.14 0.07 C95.14 31.99, 95.32 63.81, 95.98 93.74 M97.85 95.02 C60.26 92.92, 24.6 94.02, 1.18 92.75 M96.12 93.52 C58.84 93.86, 21.07 95.22, -0.12 93.96 M1.02 93.17 C0.12 65.25, 1.89 36.37, 0.29 -1.16 M-0.4 93.58 C-0.36 70.44, 0.24 47.04, 0.2 0.2" stroke="#000000" stroke-width="1" fill="none"></path></g><g transform="translate(748.299414353899 226.5882540318462) rotate(0 43.428571428571445 9.5)"><text x="43.42857142857141" y="14.999999999999993" font-family="Chinese, Segoe UI Emoji" font-size="14.637747102123264px" fill="#000000" text-anchor="middle" style="white-space: pre;" direction="ltr">Code Review</text></g><g transform="translate(582.1769246433375 616.8439737958342) rotate(0 20 13)"><text x="0" y="21" font-family="Chinese, Segoe UI Emoji" font-size="20px" fill="#1864ab" text-anchor="start" style="white-space: pre;" direction="ltr">开发</text></g><g stroke-linecap="round"><g transform="translate(579.3897039948299 607.1910477858564) rotate(0 25.7872206485074 -21.777916348211647)"><path d="M0 0 C0.92 -4.85, 1.58 -21.76, 5.52 -29.07 C9.46 -36.38, 17.61 -43.34, 23.65 -43.87 C29.69 -44.4, 37.51 -39.05, 41.78 -32.24 C46.05 -25.43, 56.23 -8.39, 49.27 -3.02 C42.31 2.36, 8.21 -0.5, 0 0 M0 0 C0.92 -4.85, 1.58 -21.76, 5.52 -29.07 C9.46 -36.38, 17.61 -43.34, 23.65 -43.87 C29.69 -44.4, 37.51 -39.05, 41.78 -32.24 C46.05 -25.43, 56.23 -8.39, 49.27 -3.02 C42.31 2.36, 8.21 -0.5, 0 0" stroke="#1864ab" stroke-width="2" fill="none"></path></g></g><g stroke-linecap="round" transform="translate(591.843574831146 540.5) rotate(0 12.612971703843186 11.03635024086293)"><path d="M20.72 2.58 C22.79 4.1, 24.57 6.79, 25.03 9.12 C25.5 11.45, 24.89 14.51, 23.54 16.55 C22.18 18.6, 19.47 20.6, 16.93 21.41 C14.39 22.22, 10.84 22.22, 8.3 21.41 C5.76 20.6, 3.04 18.6, 1.69 16.55 C0.34 14.51, -0.28 11.45, 0.19 9.12 C0.66 6.79, 2.44 4.1, 4.51 2.58 C6.58 1.06, 9.91 0, 12.61 0 C15.32 0, 18.65 1.06, 20.72 2.58" stroke="#1864ab" stroke-width="2" fill="none"></path></g><g transform="translate(775.1769246433369 609.8439737958342) rotate(0 20 13)"><text x="0" y="21" font-family="Chinese, Segoe UI Emoji" font-size="20px" fill="#c92a2a" text-anchor="start" style="white-space: pre;" direction="ltr">测试</text></g><g stroke-linecap="round"><g transform="translate(772.3897039948297 600.1910477858564) rotate(0 25.7872206485074 -21.777916348211647)"><path d="M0 0 C0.92 -4.85, 1.58 -21.76, 5.52 -29.07 C9.46 -36.38, 17.61 -43.34, 23.65 -43.87 C29.69 -44.4, 37.51 -39.05, 41.78 -32.24 C46.05 -25.43, 56.23 -8.39, 49.27 -3.02 C42.31 2.36, 8.21 -0.5, 0 0 M0 0 C0.92 -4.85, 1.58 -21.76, 5.52 -29.07 C9.46 -36.38, 17.61 -43.34, 23.65 -43.87 C29.69 -44.4, 37.51 -39.05, 41.78 -32.24 C46.05 -25.43, 56.23 -8.39, 49.27 -3.02 C42.31 2.36, 8.21 -0.5, 0 0" stroke="#c92a2a" stroke-width="2" fill="none"></path></g></g><g stroke-linecap="round" transform="translate(784.8435748311458 533.5) rotate(0 12.612971703843186 11.03635024086293)"><path d="M20.72 2.58 C22.79 4.1, 24.57 6.79, 25.03 9.12 C25.5 11.45, 24.89 14.51, 23.54 16.55 C22.18 18.6, 19.47 20.6, 16.93 21.41 C14.39 22.22, 10.84 22.22, 8.3 21.41 C5.76 20.6, 3.04 18.6, 1.69 16.55 C0.34 14.51, -0.28 11.45, 0.19 9.12 C0.66 6.79, 2.44 4.1, 4.51 2.58 C6.58 1.06, 9.91 0, 12.61 0 C15.32 0, 18.65 1.06, 20.72 2.58" stroke="#c92a2a" stroke-width="2" fill="none"></path></g><g transform="translate(700.0244143538987 89.34397379583424) rotate(0 50 13)"><text x="0" y="21" font-family="Chinese, Segoe UI Emoji" font-size="20px" fill="#e67700" text-anchor="start" style="white-space: pre;" direction="ltr">业务负责人</text></g><g stroke-linecap="round"><g transform="translate(722.2371937053911 79.69104778585643) rotate(0 25.7872206485074 -21.777916348211647)"><path d="M0 0 C0.92 -4.85, 1.58 -21.76, 5.52 -29.07 C9.46 -36.38, 17.61 -43.34, 23.65 -43.87 C29.69 -44.4, 37.51 -39.05, 41.78 -32.24 C46.05 -25.43, 56.23 -8.39, 49.27 -3.02 C42.31 2.36, 8.21 -0.5, 0 0 M0 0 C0.92 -4.85, 1.58 -21.76, 5.52 -29.07 C9.46 -36.38, 17.61 -43.34, 23.65 -43.87 C29.69 -44.4, 37.51 -39.05, 41.78 -32.24 C46.05 -25.43, 56.23 -8.39, 49.27 -3.02 C42.31 2.36, 8.21 -0.5, 0 0" stroke="#e67700" stroke-width="2" fill="none"></path></g></g><g stroke-linecap="round" transform="translate(734.6910645417072 13) rotate(0 12.612971703843186 11.03635024086293)"><path d="M20.72 2.58 C22.79 4.1, 24.57 6.79, 25.03 9.12 C25.5 11.45, 24.89 14.51, 23.54 16.55 C22.18 18.6, 19.47 20.6, 16.93 21.41 C14.39 22.22, 10.84 22.22, 8.3 21.41 C5.76 20.6, 3.04 18.6, 1.69 16.55 C0.34 14.51, -0.28 11.45, 0.19 9.12 C0.66 6.79, 2.44 4.1, 4.51 2.58 C6.58 1.06, 9.91 0, 12.61 0 C15.32 0, 18.65 1.06, 20.72 2.58" stroke="#e67700" stroke-width="2" fill="none"></path></g><g transform="translate(819.0244143538987 88.34397379583424) rotate(0 40 13)"><text x="0" y="21" font-family="Chinese, Segoe UI Emoji" font-size="20px" fill="#5f3dc4" text-anchor="start" style="white-space: pre;" direction="ltr">评审人员</text></g><g stroke-linecap="round"><g transform="translate(829.2371937053911 76.69104778585643) rotate(0 25.7872206485074 -21.777916348211647)"><path d="M0 0 C0.92 -4.85, 1.58 -21.76, 5.52 -29.07 C9.46 -36.38, 17.61 -43.34, 23.65 -43.87 C29.69 -44.4, 37.51 -39.05, 41.78 -32.24 C46.05 -25.43, 56.23 -8.39, 49.27 -3.02 C42.31 2.36, 8.21 -0.5, 0 0 M0 0 C0.92 -4.85, 1.58 -21.76, 5.52 -29.07 C9.46 -36.38, 17.61 -43.34, 23.65 -43.87 C29.69 -44.4, 37.51 -39.05, 41.78 -32.24 C46.05 -25.43, 56.23 -8.39, 49.27 -3.02 C42.31 2.36, 8.21 -0.5, 0 0" stroke="#5f3dc4" stroke-width="2" fill="none"></path></g></g><g stroke-linecap="round" transform="translate(841.6910645417072 10) rotate(0 12.612971703843186 11.03635024086293)"><path d="M20.72 2.58 C22.79 4.1, 24.57 6.79, 25.03 9.12 C25.5 11.45, 24.89 14.51, 23.54 16.55 C22.18 18.6, 19.47 20.6, 16.93 21.41 C14.39 22.22, 10.84 22.22, 8.3 21.41 C5.76 20.6, 3.04 18.6, 1.69 16.55 C0.34 14.51, -0.28 11.45, 0.19 9.12 C0.66 6.79, 2.44 4.1, 4.51 2.58 C6.58 1.06, 9.91 0, 12.61 0 C15.32 0, 18.65 1.06, 20.72 2.58" stroke="#5f3dc4" stroke-width="2" fill="none"></path></g><g stroke-linecap="round"><g transform="translate(473.0244143538987 343.6719868979171) rotate(0 41.51103511670601 -1.2950673616862787)"><path d="M0.89 0.15 C14.63 -0.23, 69.73 -0.64, 83.13 -1.1 M-0.11 -0.81 C13.52 -1.01, 68.8 -2.62, 82.77 -2.74" stroke="#000000" stroke-width="1" fill="none"></path></g><g transform="translate(473.0244143538987 343.6719868979171) rotate(0 41.51103511670601 -1.2950673616862787)"><path d="M55.05 9.96 C66.16 2.76, 73.69 -1.45, 81.01 -2.99 M55.05 7.73 C64.69 4.17, 73.9 0.96, 82.72 -2.95" stroke="#000000" stroke-width="1" fill="none"></path></g><g transform="translate(473.0244143538987 343.6719868979171) rotate(0 41.51103511670601 -1.2950673616862787)"><path d="M54.63 -10.55 C66.1 -10.45, 73.77 -7.35, 81.01 -2.99 M54.64 -12.79 C64.32 -9.48, 73.66 -5.84, 82.72 -2.95" stroke="#000000" stroke-width="1" fill="none"></path></g></g><g stroke-linecap="round"><g transform="translate(655.0244143538987 335.6719868979171) rotate(0 40.67313993326388 -50.268629360571595)"><path d="M0.71 0.3 C5.56 -12.46, 16.34 -59.13, 29.84 -75.98 C43.34 -92.84, 73.17 -97, 81.72 -100.84 M-0.38 -0.59 C4.76 -13.71, 18.41 -61.01, 31.94 -77.57 C45.47 -94.13, 72.65 -96.04, 80.81 -99.96" stroke="#000000" stroke-width="1" fill="none"></path></g><g transform="translate(655.0244143538987 335.6719868979171) rotate(0 40.67313993326388 -50.268629360571595)"><path d="M58.83 -85.26 C68.05 -89.92, 73.07 -96.89, 82.42 -100.2 M58.79 -82.43 C65.67 -88.83, 72.97 -94.13, 80.43 -100.57" stroke="#000000" stroke-width="1" fill="none"></path></g><g transform="translate(655.0244143538987 335.6719868979171) rotate(0 40.67313993326388 -50.268629360571595)"><path d="M53.39 -103.61 C64.66 -101.68, 71.64 -102.03, 82.42 -100.2 M53.36 -100.78 C61.85 -101.59, 70.8 -101.33, 80.43 -100.57" stroke="#000000" stroke-width="1" fill="none"></path></g></g><g stroke-linecap="round"><g transform="translate(656.0244143538987 337.6719868979171) rotate(0 42.19366180859504 30.103793002273733)"><path d="M-0.58 -0.47 C5.45 8.33, 22.22 42.95, 36.48 53.36 C50.74 63.76, 77.05 60.69, 84.97 61.97 M1.31 -1.76 C7.12 6.62, 21.36 41.11, 35.26 51.42 C49.16 61.73, 76.56 58.34, 84.72 60.13" stroke="#000000" stroke-width="1" fill="none"></path></g><g transform="translate(656.0244143538987 337.6719868979171) rotate(0 42.19366180859504 30.103793002273733)"><path d="M61.08 66.02 C69.81 66.43, 78.22 62.6, 84.78 59.17 M62.66 67.44 C67.78 65.75, 73.6 62.85, 84.77 60.25" stroke="#000000" stroke-width="1" fill="none"></path></g><g transform="translate(656.0244143538987 337.6719868979171) rotate(0 42.19366180859504 30.103793002273733)"><path d="M62.08 49.74 C70.57 55.41, 78.65 56.84, 84.78 59.17 M63.66 51.16 C68.5 53.77, 74.05 55.18, 84.77 60.25" stroke="#000000" stroke-width="1" fill="none"></path></g></g><g stroke-linecap="round"><g transform="translate(799.0244143538987 444.6719868979171) rotate(0 -95.4521160556809 1.0253041599130484)"><path d="M0.25 -1.15 C-2.17 6.39, 13.59 37.31, -14.95 44.14 C-43.49 50.97, -141.15 55.05, -170.99 39.84 C-200.83 24.63, -190.32 -32.56, -193.98 -47.13 M-1.08 0.86 C-3.09 8.62, 15.71 38.61, -12.73 45.23 C-41.18 51.84, -141.58 56.29, -171.75 40.55 C-201.92 24.81, -190.03 -34.65, -193.73 -49.22" stroke="#c92a2a" stroke-width="1" fill="none"></path></g><g transform="translate(799.0244143538987 444.6719868979171) rotate(0 -95.4521160556809 1.0253041599130484)"><path d="M-184.55 -22.92 C-186.75 -28.67, -190.19 -36.03, -192.27 -47.51 M-182.09 -20.69 C-187.12 -30.37, -190.69 -40.4, -194.55 -48.24" stroke="#c92a2a" stroke-width="1" fill="none"></path></g><g transform="translate(799.0244143538987 444.6719868979171) rotate(0 -95.4521160556809 1.0253041599130484)"><path d="M-205.07 -22.32 C-201.84 -28.27, -199.85 -35.79, -192.27 -47.51 M-202.6 -20.08 C-200.68 -30.16, -197.29 -40.4, -194.55 -48.24" stroke="#c92a2a" stroke-width="1" fill="none"></path></g></g><g stroke-linecap="round"><g transform="translate(598.3633260197907 240.3488178354728) rotate(179.21956585657338 94.68788513629966 -26.554977596012577)"><path d="M0.81 1.02 C2.88 8.4, -16.83 38.94, 12.91 44.88 C42.65 50.82, 151.26 61.33, 179.25 36.65 C207.24 11.98, 180.71 -79.79, 180.86 -103.18 M-0.22 0.51 C2.16 7.47, -15.28 36.87, 15.04 43.01 C45.36 49.16, 154.55 62.1, 181.71 37.38 C208.87 12.65, 178.47 -81.93, 178 -105.35" stroke="#c92a2a" stroke-width="1" fill="none"></path></g><g transform="translate(598.3633260197907 240.3488178354728) rotate(179.21956585657338 94.68788513629966 -26.554977596012577)"><path d="M194.5 -81.1 C188.42 -89.48, 180.64 -95.27, 179.22 -104.73 M192.46 -79.77 C188.27 -87.44, 183.84 -95.78, 178.36 -105.15" stroke="#c92a2a" stroke-width="1" fill="none"></path></g><g transform="translate(598.3633260197907 240.3488178354728) rotate(179.21956585657338 94.68788513629966 -26.554977596012577)"><path d="M174.27 -77.69 C175.1 -87.38, 174.26 -94.34, 179.22 -104.73 M172.23 -76.37 C174.51 -85.23, 176.53 -94.66, 178.36 -105.15" stroke="#c92a2a" stroke-width="1" fill="none"></path></g></g><g transform="translate(658.0244143538987 152.17198689791712) rotate(0 30 13)"><text x="0" y="21" font-family="Chinese, Segoe UI Emoji" font-size="20px" fill="#c92a2a" text-anchor="start" style="white-space: pre;" direction="ltr">不通过</text></g><g transform="translate(668.0244143538987 457.6719868979171) rotate(0 30 13)"><text x="0" y="21" font-family="Chinese, Segoe UI Emoji" font-size="20px" fill="#c92a2a" text-anchor="start" style="white-space: pre;" direction="ltr">不通过</text></g><g stroke-linecap="round" transform="translate(947 277.5711189739013) rotate(0 48.02441435389869 47.10086792401603)"><path d="M-1.96 -0.24 L97.9 -0.87 L96.93 93.15 L-1.6 94.54" stroke="none" stroke-width="0" fill="#eeeeee"></path><path d="M1 -0.8 C27.12 -0.82, 50.69 0.95, 94.32 -1.37 M-0.91 0.44 C30.89 0.6, 62.49 -0.59, 96.43 0.32 M94.82 -0.98 C96.24 36.75, 95.76 75.85, 95.81 93.13 M95.05 0.92 C96.41 23.88, 95.72 48.37, 95.6 93.56 M96.54 95.91 C68.95 92.75, 37.48 94.81, 0.06 92.4 M95.9 93.89 C76.81 93.72, 55.06 95.33, -0.18 93.71 M-1.03 95.26 C2.16 58.55, 1.64 26.23, -0.7 -1.26 M0.28 94.41 C-0.08 64.88, -1.39 35.43, 0.08 0.32" stroke="#000000" stroke-width="1" fill="none"></path></g><g transform="translate(951.299414353899 308.5882540318462) rotate(0 43 14)"><text x="43" y="22" font-family="Chinese, Segoe UI Emoji" font-size="21.571416782076398px" fill="#000000" text-anchor="middle" style="white-space: pre;" direction="ltr">上线申请</text></g><g stroke-linecap="round"><g transform="translate(851.0244143538987 238.67198689791712) rotate(0 45.96947409547863 41.73402442433871)"><path d="M-0.45 -1.06 C8 1.87, 35.47 3.95, 50.94 18.1 C66.41 32.25, 85.57 72.49, 92.39 83.82 M1.51 1 C10.3 4.1, 38.05 5.77, 53.1 19.69 C68.15 33.61, 85.34 73.78, 91.83 84.52" stroke="#000000" stroke-width="1" fill="none"></path></g><g transform="translate(851.0244143538987 238.67198689791712) rotate(0 45.96947409547863 41.73402442433871)"><path d="M67.95 62.49 C77.06 71.48, 82.02 77.09, 93.68 83.65 M69.88 64.42 C77.04 72.39, 85.21 78.69, 92.58 83.71" stroke="#000000" stroke-width="1" fill="none"></path></g><g transform="translate(851.0244143538987 238.67198689791712) rotate(0 45.96947409547863 41.73402442433871)"><path d="M86.16 53.02 C89.47 64.98, 88.59 73.62, 93.68 83.65 M88.09 54.95 C88.93 66.03, 90.84 75.59, 92.58 83.71" stroke="#000000" stroke-width="1" fill="none"></path></g></g><g stroke-linecap="round"><g transform="translate(848.0244143538987 393.6719868979171) rotate(0 48.33666300978507 -31.709854662679163)"><path d="M1.14 -0.95 C12.29 -3.95, 52.44 -7.33, 67.92 -17.65 C83.4 -27.96, 89.52 -54.96, 94.02 -62.85 M0.27 1.17 C11.7 -2.24, 54.05 -8.62, 70.07 -19.58 C86.09 -30.54, 92.22 -57.13, 96.4 -64.59" stroke="#000000" stroke-width="1" fill="none"></path></g><g transform="translate(848.0244143538987 393.6719868979171) rotate(0 48.33666300978507 -31.709854662679163)"><path d="M93.73 -39.99 C96.23 -49.93, 97.97 -58.48, 94.77 -65.82 M94.5 -38.88 C96.36 -47.04, 96.72 -57.39, 95.59 -64.03" stroke="#000000" stroke-width="1" fill="none"></path></g><g transform="translate(848.0244143538987 393.6719868979171) rotate(0 48.33666300978507 -31.709854662679163)"><path d="M77.02 -46.87 C85.93 -54.34, 94.06 -60.26, 94.77 -65.82 M77.79 -45.76 C85.87 -51.23, 92.45 -59.01, 95.59 -64.03" stroke="#000000" stroke-width="1" fill="none"></path></g></g><g stroke-linecap="round" transform="translate(1116 276.5711189739013) rotate(0 48.02441435389869 47.10086792401603)"><path d="M0.18 -1.46 L96.72 -1.08 L96.57 95 L0.86 92.35" stroke="none" stroke-width="0" fill="#eeeeee"></path><path d="M-0.32 -0.61 C37.52 -1.39, 70.85 -1.07, 96.21 -0.82 M0.72 -0.62 C32.44 -0.13, 65.25 -0.1, 96.41 -0.34 M97.66 -1.86 C96.97 21.28, 96.38 44.86, 95.56 96.15 M96.22 0.85 C96.35 26.12, 97.64 54.6, 96.7 93.47 M95.03 95.85 C61.78 92.6, 29.58 92.46, -1.32 92.59 M95.22 93.25 C75.13 95.05, 54.89 94.1, 0.27 93.27 M0.11 94.81 C-2.57 65.29, -0.61 35.18, 0.62 -0.75 M0.62 93.72 C-0.7 60.51, -0.27 25.8, 0.67 0.45" stroke="#000000" stroke-width="1" fill="none"></path></g><g transform="translate(1120.299414353899 307.5882540318462) rotate(0 43 14)"><text x="43" y="22" font-family="Chinese, Segoe UI Emoji" font-size="21.571416782076398px" fill="#000000" text-anchor="middle" style="white-space: pre;" direction="ltr">合并提交</text></g><g transform="translate(956.5244143538987 501.8439737958338) rotate(0 33.5 13)"><text x="0" y="21" font-family="Chinese, Segoe UI Emoji" font-size="20px" fill="#a61e4d" text-anchor="start" style="white-space: pre;" direction="ltr">Leader</text></g><g stroke-linecap="round"><g transform="translate(961.7371937053911 492.191047785856) rotate(0 25.7872206485074 -21.777916348211647)"><path d="M0 0 C0.92 -4.85, 1.58 -21.76, 5.52 -29.07 C9.46 -36.38, 17.61 -43.34, 23.65 -43.87 C29.69 -44.4, 37.51 -39.05, 41.78 -32.24 C46.05 -25.43, 56.23 -8.39, 49.27 -3.02 C42.31 2.36, 8.21 -0.5, 0 0 M0 0 C0.92 -4.85, 1.58 -21.76, 5.52 -29.07 C9.46 -36.38, 17.61 -43.34, 23.65 -43.87 C29.69 -44.4, 37.51 -39.05, 41.78 -32.24 C46.05 -25.43, 56.23 -8.39, 49.27 -3.02 C42.31 2.36, 8.21 -0.5, 0 0" stroke="#a61e4d" stroke-width="2" fill="none"></path></g></g><g stroke-linecap="round" transform="translate(974.1910645417072 425.49999999999955) rotate(0 12.612971703843186 11.03635024086293)"><path d="M20.72 2.58 C22.79 4.1, 24.57 6.79, 25.03 9.12 C25.5 11.45, 24.89 14.51, 23.54 16.55 C22.18 18.6, 19.47 20.6, 16.93 21.41 C14.39 22.22, 10.84 22.22, 8.3 21.41 C5.76 20.6, 3.04 18.6, 1.69 16.55 C0.34 14.51, -0.28 11.45, 0.19 9.12 C0.66 6.79, 2.44 4.1, 4.51 2.58 C6.58 1.06, 9.91 0, 12.61 0 C15.32 0, 18.65 1.06, 20.72 2.58" stroke="#a61e4d" stroke-width="2" fill="none"></path></g><g transform="translate(1152.1769246433375 500.84397379583424) rotate(0 20 13)"><text x="0" y="21" font-family="Chinese, Segoe UI Emoji" font-size="20px" fill="#1864ab" text-anchor="start" style="white-space: pre;" direction="ltr">开发</text></g><g stroke-linecap="round"><g transform="translate(1149.38970399483 491.1910477858564) rotate(0 25.7872206485074 -21.777916348211647)"><path d="M0 0 C0.92 -4.85, 1.58 -21.76, 5.52 -29.07 C9.46 -36.38, 17.61 -43.34, 23.65 -43.87 C29.69 -44.4, 37.51 -39.05, 41.78 -32.24 C46.05 -25.43, 56.23 -8.39, 49.27 -3.02 C42.31 2.36, 8.21 -0.5, 0 0 M0 0 C0.92 -4.85, 1.58 -21.76, 5.52 -29.07 C9.46 -36.38, 17.61 -43.34, 23.65 -43.87 C29.69 -44.4, 37.51 -39.05, 41.78 -32.24 C46.05 -25.43, 56.23 -8.39, 49.27 -3.02 C42.31 2.36, 8.21 -0.5, 0 0" stroke="#1864ab" stroke-width="2" fill="none"></path></g></g><g stroke-linecap="round" transform="translate(1161.843574831146 424.5) rotate(0 12.612971703843186 11.03635024086293)"><path d="M20.72 2.58 C22.79 4.1, 24.57 6.79, 25.03 9.12 C25.5 11.45, 24.89 14.51, 23.54 16.55 C22.18 18.6, 19.47 20.6, 16.93 21.41 C14.39 22.22, 10.84 22.22, 8.3 21.41 C5.76 20.6, 3.04 18.6, 1.69 16.55 C0.34 14.51, -0.28 11.45, 0.19 9.12 C0.66 6.79, 2.44 4.1, 4.51 2.58 C6.58 1.06, 9.91 0, 12.61 0 C15.32 0, 18.65 1.06, 20.72 2.58" stroke="#1864ab" stroke-width="2" fill="none"></path></g><g stroke-linecap="round" transform="translate(1288 274.5711189739013) rotate(0 48.024414353898806 47.10086792401603)"><path d="M-0.35 0.03 L95.14 0.52 L96.68 94.61 L-1.28 94.82" stroke="none" stroke-width="0" fill="#eeeeee"></path><path d="M0.13 0.12 C23.44 -0.21, 46.58 -2.33, 95.59 -1.83 M0.16 -0.11 C27.22 -0.82, 55.33 -1.1, 96.09 0.67 M95.76 1.47 C96.41 19.99, 97.85 41.4, 94.67 95.52 M96.23 0.51 C96.27 20.63, 96.2 41.75, 96.43 94.44 M97.33 95.45 C74.61 95.02, 52.29 94.52, -1.36 92.99 M95.89 94.7 C67.14 95.76, 37.89 95.39, -0.06 93.77 M-1.94 94.49 C2.68 69, 0.24 42.25, 0.06 0.87 M0.94 94.7 C0.77 58.66, 0.83 22.3, -0.21 -0.57" stroke="#000000" stroke-width="1" fill="none"></path></g><g transform="translate(1292.2994143538992 305.5882540318462) rotate(0 43 14)"><text x="43" y="22" font-family="Chinese, Segoe UI Emoji" font-size="21.571416782076398px" fill="#000000" text-anchor="middle" style="white-space: pre;" direction="ltr">打包发布</text></g><g transform="translate(1312.1769246433375 497.8439737958338) rotate(0 20 13)"><text x="0" y="21" font-family="Chinese, Segoe UI Emoji" font-size="20px" fill="#5c940d" text-anchor="start" style="white-space: pre;" direction="ltr">运维</text></g><g stroke-linecap="round"><g transform="translate(1309.38970399483 488.191047785856) rotate(0 25.7872206485074 -21.777916348211647)"><path d="M0 0 C0.92 -4.85, 1.58 -21.76, 5.52 -29.07 C9.46 -36.38, 17.61 -43.34, 23.65 -43.87 C29.69 -44.4, 37.51 -39.05, 41.78 -32.24 C46.05 -25.43, 56.23 -8.39, 49.27 -3.02 C42.31 2.36, 8.21 -0.5, 0 0 M0 0 C0.92 -4.85, 1.58 -21.76, 5.52 -29.07 C9.46 -36.38, 17.61 -43.34, 23.65 -43.87 C29.69 -44.4, 37.51 -39.05, 41.78 -32.24 C46.05 -25.43, 56.23 -8.39, 49.27 -3.02 C42.31 2.36, 8.21 -0.5, 0 0" stroke="#5c940d" stroke-width="2" fill="none"></path></g></g><g stroke-linecap="round" transform="translate(1321.843574831146 421.49999999999955) rotate(0 12.612971703843186 11.03635024086293)"><path d="M20.72 2.58 C22.79 4.1, 24.57 6.79, 25.03 9.12 C25.5 11.45, 24.89 14.51, 23.54 16.55 C22.18 18.6, 19.47 20.6, 16.93 21.41 C14.39 22.22, 10.84 22.22, 8.3 21.41 C5.76 20.6, 3.04 18.6, 1.69 16.55 C0.34 14.51, -0.28 11.45, 0.19 9.12 C0.66 6.79, 2.44 4.1, 4.51 2.58 C6.58 1.06, 9.91 0, 12.61 0 C15.32 0, 18.65 1.06, 20.72 2.58" stroke="#5c940d" stroke-width="2" fill="none"></path></g><g stroke-linecap="round" transform="translate(1458.9999999999993 272.5711189739013) rotate(0 48.02441435389869 47.10086792401603)"><path d="M-0.16 -0.86 L95.94 1.17 L96.97 92.69 L-0.02 95.95" stroke="none" stroke-width="0" fill="#eeeeee"></path><path d="M-0.18 1.43 C32.15 -1.97, 67.2 -0.18, 97.19 -1.41 M0.55 0.47 C31.82 -1.01, 64.29 0.67, 96.42 0.28 M97.97 0.64 C95.3 22.22, 94.84 42.51, 94.57 95.36 M96.94 0.6 C94.56 21.62, 94.2 45.26, 95.83 94.64 M97.38 93.44 C62.27 94.58, 28.73 96.5, 1.13 95.07 M95.64 95.05 C61.04 93.8, 24.01 94.14, -0.11 93.47 M1.01 93.05 C1.21 73.32, 0.98 52.21, -0.08 -1.82 M0.8 93.64 C0.19 67.99, 0.67 43.65, -0.75 -0.59" stroke="#000000" stroke-width="1" fill="none"></path></g><g transform="translate(1484.7994143538983 303.5882540318462) rotate(0 21.5 14)"><text x="21.5" y="22" font-family="Chinese, Segoe UI Emoji" font-size="21.571416782076398px" fill="#000000" text-anchor="middle" style="white-space: pre;" direction="ltr">验收</text></g><g transform="translate(1486.176924643337 498.84397379583424) rotate(0 20 13)"><text x="0" y="21" font-family="Chinese, Segoe UI Emoji" font-size="20px" fill="#c92a2a" text-anchor="start" style="white-space: pre;" direction="ltr">测试</text></g><g stroke-linecap="round"><g transform="translate(1483.38970399483 489.1910477858564) rotate(0 25.7872206485074 -21.777916348211647)"><path d="M0 0 C0.92 -4.85, 1.58 -21.76, 5.52 -29.07 C9.46 -36.38, 17.61 -43.34, 23.65 -43.87 C29.69 -44.4, 37.51 -39.05, 41.78 -32.24 C46.05 -25.43, 56.23 -8.39, 49.27 -3.02 C42.31 2.36, 8.21 -0.5, 0 0 M0 0 C0.92 -4.85, 1.58 -21.76, 5.52 -29.07 C9.46 -36.38, 17.61 -43.34, 23.65 -43.87 C29.69 -44.4, 37.51 -39.05, 41.78 -32.24 C46.05 -25.43, 56.23 -8.39, 49.27 -3.02 C42.31 2.36, 8.21 -0.5, 0 0" stroke="#c92a2a" stroke-width="2" fill="none"></path></g></g><g stroke-linecap="round" transform="translate(1495.843574831146 422.5) rotate(0 12.612971703843186 11.03635024086293)"><path d="M20.72 2.58 C22.79 4.1, 24.57 6.79, 25.03 9.12 C25.5 11.45, 24.89 14.51, 23.54 16.55 C22.18 18.6, 19.47 20.6, 16.93 21.41 C14.39 22.22, 10.84 22.22, 8.3 21.41 C5.76 20.6, 3.04 18.6, 1.69 16.55 C0.34 14.51, -0.28 11.45, 0.19 9.12 C0.66 6.79, 2.44 4.1, 4.51 2.58 C6.58 1.06, 9.91 0, 12.61 0 C15.32 0, 18.65 1.06, 20.72 2.58" stroke="#c92a2a" stroke-width="2" fill="none"></path></g><g stroke-linecap="round" transform="translate(1622.9999999999993 271.5711189739013) rotate(0 48.02441435389869 47.10086792401603)"><path d="M-0.73 -0.94 L97.18 -1.95 L97.04 94.73 L1.86 92.96" stroke="none" stroke-width="0" fill="#eeeeee"></path><path d="M0.24 0.55 C21.93 2.13, 48.27 0.67, 94.48 -1.34 M0.84 0.2 C38.38 -0.42, 75.53 -1.07, 96.83 -0.87 M96.56 -1.52 C96.06 22.32, 95.79 43.75, 97.66 92.96 M95.18 0.43 C95.86 24, 95.71 48.58, 96.14 93.83 M94.07 92.24 C65.23 94.18, 31.42 94.8, -1.72 92.7 M95.76 94.03 C61.82 94.94, 28.16 93.45, 0.21 94.25 M-1.65 94.3 C1.98 64.12, 1.8 36.83, 0.98 0.43 M-0.73 95.13 C0.68 74.86, 0.5 54.42, -0.81 0.96" stroke="#000000" stroke-width="1" fill="none"></path></g><g transform="translate(1648.7994143538983 302.5882540318462) rotate(0 21.5 14)"><text x="21.5" y="22" font-family="Chinese, Segoe UI Emoji" font-size="21.571416782076398px" fill="#000000" text-anchor="middle" style="white-space: pre;" direction="ltr">放量</text></g><g stroke-linecap="round" transform="translate(1786.9999999999993 265.5711189739013) rotate(0 48.02441435389869 47.10086792401603)"><path d="M-1.94 1.89 L97.81 -1.47 L95.38 92.8 L0.2 95.36" stroke="none" stroke-width="0" fill="#eeeeee"></path><path d="M-1.96 1.1 C20.71 0.16, 41.35 -0.77, 94.54 1.11 M-0.17 -0.06 C24.06 0.71, 45.91 0.48, 96.09 0.04 M96.14 1.37 C95.23 23.41, 96.55 45.41, 96.48 92.47 M96.98 0.74 C96.71 29.34, 96.39 56.76, 97.01 93.84 M97.04 94.73 C73.62 92.02, 48.53 93.53, 0.54 92.77 M95.85 95.08 C71.04 93.18, 47.42 93.82, 0.03 94.09 M0.94 94.8 C-2.14 65.31, -0.69 33.84, -1.39 0.28 M0.35 93.96 C1.21 62.93, -0.27 28.86, -0.76 0.41" stroke="#000000" stroke-width="1" fill="none"></path></g><g transform="translate(1791.2994143538983 296.5882540318462) rotate(0 43 14)"><text x="43" y="22" font-family="Chinese, Segoe UI Emoji" font-size="21.571416782076398px" fill="#000000" text-anchor="middle" style="white-space: pre;" direction="ltr">全量上线</text></g><g transform="translate(1655.1769246433375 490.8439737958338) rotate(0 20 13)"><text x="0" y="21" font-family="Chinese, Segoe UI Emoji" font-size="20px" fill="#5c940d" text-anchor="start" style="white-space: pre;" direction="ltr">运维</text></g><g stroke-linecap="round"><g transform="translate(1652.38970399483 481.191047785856) rotate(0 25.7872206485074 -21.777916348211647)"><path d="M0 0 C0.92 -4.85, 1.58 -21.76, 5.52 -29.07 C9.46 -36.38, 17.61 -43.34, 23.65 -43.87 C29.69 -44.4, 37.51 -39.05, 41.78 -32.24 C46.05 -25.43, 56.23 -8.39, 49.27 -3.02 C42.31 2.36, 8.21 -0.5, 0 0 M0 0 C0.92 -4.85, 1.58 -21.76, 5.52 -29.07 C9.46 -36.38, 17.61 -43.34, 23.65 -43.87 C29.69 -44.4, 37.51 -39.05, 41.78 -32.24 C46.05 -25.43, 56.23 -8.39, 49.27 -3.02 C42.31 2.36, 8.21 -0.5, 0 0" stroke="#5c940d" stroke-width="2" fill="none"></path></g></g><g stroke-linecap="round" transform="translate(1664.843574831146 414.49999999999955) rotate(0 12.612971703843186 11.03635024086293)"><path d="M20.72 2.58 C22.79 4.1, 24.57 6.79, 25.03 9.12 C25.5 11.45, 24.89 14.51, 23.54 16.55 C22.18 18.6, 19.47 20.6, 16.93 21.41 C14.39 22.22, 10.84 22.22, 8.3 21.41 C5.76 20.6, 3.04 18.6, 1.69 16.55 C0.34 14.51, -0.28 11.45, 0.19 9.12 C0.66 6.79, 2.44 4.1, 4.51 2.58 C6.58 1.06, 9.91 0, 12.61 0 C15.32 0, 18.65 1.06, 20.72 2.58" stroke="#5c940d" stroke-width="2" fill="none"></path></g><g transform="translate(1822.1769246433375 481.8439737958338) rotate(0 20 13)"><text x="0" y="21" font-family="Chinese, Segoe UI Emoji" font-size="20px" fill="#5c940d" text-anchor="start" style="white-space: pre;" direction="ltr">运维</text></g><g stroke-linecap="round"><g transform="translate(1819.38970399483 472.191047785856) rotate(0 25.7872206485074 -21.777916348211647)"><path d="M0 0 C0.92 -4.85, 1.58 -21.76, 5.52 -29.07 C9.46 -36.38, 17.61 -43.34, 23.65 -43.87 C29.69 -44.4, 37.51 -39.05, 41.78 -32.24 C46.05 -25.43, 56.23 -8.39, 49.27 -3.02 C42.31 2.36, 8.21 -0.5, 0 0 M0 0 C0.92 -4.85, 1.58 -21.76, 5.52 -29.07 C9.46 -36.38, 17.61 -43.34, 23.65 -43.87 C29.69 -44.4, 37.51 -39.05, 41.78 -32.24 C46.05 -25.43, 56.23 -8.39, 49.27 -3.02 C42.31 2.36, 8.21 -0.5, 0 0" stroke="#5c940d" stroke-width="2" fill="none"></path></g></g><g stroke-linecap="round" transform="translate(1831.843574831146 405.49999999999955) rotate(0 12.612971703843186 11.03635024086293)"><path d="M20.72 2.58 C22.79 4.1, 24.57 6.79, 25.03 9.12 C25.5 11.45, 24.89 14.51, 23.54 16.55 C22.18 18.6, 19.47 20.6, 16.93 21.41 C14.39 22.22, 10.84 22.22, 8.3 21.41 C5.76 20.6, 3.04 18.6, 1.69 16.55 C0.34 14.51, -0.28 11.45, 0.19 9.12 C0.66 6.79, 2.44 4.1, 4.51 2.58 C6.58 1.06, 9.91 0, 12.61 0 C15.32 0, 18.65 1.06, 20.72 2.58" stroke="#5c940d" stroke-width="2" fill="none"></path></g><g stroke-linecap="round"><g transform="translate(1045.0244143538987 320.6719868979171) rotate(0 32.19699586667127 -0.20609590387562093)"><path d="M-0.71 0.31 C10.12 0.58, 54.06 0.82, 65.11 0.67 M1.11 -0.58 C11.79 -0.57, 53.55 -1.26, 64.22 -1.1" stroke="#000000" stroke-width="1" fill="none"></path></g><g transform="translate(1045.0244143538987 320.6719868979171) rotate(0 32.19699586667127 -0.20609590387562093)"><path d="M36.57 9.42 C45.96 7.19, 52.52 1.85, 63.72 -2.5 M35.72 10.21 C46.09 5.55, 57.49 2.09, 63.22 -0.93" stroke="#000000" stroke-width="1" fill="none"></path></g><g transform="translate(1045.0244143538987 320.6719868979171) rotate(0 32.19699586667127 -0.20609590387562093)"><path d="M36.51 -11.1 C45.76 -6.98, 52.34 -5.97, 63.72 -2.5 M35.66 -10.31 C46.13 -7.27, 57.55 -3.02, 63.22 -0.93" stroke="#000000" stroke-width="1" fill="none"></path></g></g><g stroke-linecap="round"><g transform="translate(1214.0244143538987 319.6719868979171) rotate(0 36.662538278475495 -0.14633521121118065)"><path d="M-0.71 -0.07 C11.47 0.27, 61.75 0.98, 74.04 0.84 M1.12 -1.15 C13.05 -1.04, 60.72 -1.02, 73.11 -0.84" stroke="#000000" stroke-width="1" fill="none"></path></g><g transform="translate(1214.0244143538987 319.6719868979171) rotate(0 36.662538278475495 -0.14633521121118065)"><path d="M44.74 9.29 C57.11 3.95, 64.95 2.47, 73.8 -2.49 M45.41 9.99 C55.55 5.8, 66.97 0.87, 72.6 -1.79" stroke="#000000" stroke-width="1" fill="none"></path></g><g transform="translate(1214.0244143538987 319.6719868979171) rotate(0 36.662538278475495 -0.14633521121118065)"><path d="M44.87 -11.23 C56.99 -8.76, 64.78 -2.41, 73.8 -2.49 M45.54 -10.53 C55.52 -6.52, 66.89 -3.25, 72.6 -1.79" stroke="#000000" stroke-width="1" fill="none"></path></g></g><g stroke-linecap="round"><g transform="translate(1389.0244143538987 317.6719868979171) rotate(0 32.12451947263435 0.2561138465348449)"><path d="M-0.02 0.66 C11.04 1.06, 54.92 1.04, 65.73 1.25 M-1.48 -0.03 C9.44 0.08, 53.21 -0.76, 64.65 -0.74" stroke="#000000" stroke-width="1" fill="none"></path></g><g transform="translate(1389.0244143538987 317.6719868979171) rotate(0 32.12451947263435 0.2561138465348449)"><path d="M37.66 9.35 C44.07 5.28, 52.22 3.59, 65.25 -1.59 M35.92 8.91 C43.01 7.49, 50.25 4.18, 65.55 -1.06" stroke="#000000" stroke-width="1" fill="none"></path></g><g transform="translate(1389.0244143538987 317.6719868979171) rotate(0 32.12451947263435 0.2561138465348449)"><path d="M37.47 -11.17 C43.73 -10.13, 51.93 -6.71, 65.25 -1.59 M35.73 -11.61 C42.95 -8.07, 50.24 -6.43, 65.55 -1.06" stroke="#000000" stroke-width="1" fill="none"></path></g></g><g stroke-linecap="round"><g transform="translate(1557.0244143538987 319.6719868979171) rotate(0 31.94747753180559 -0.2120622102172547)"><path d="M-1.1 0.83 C9.81 0.78, 54.1 -0.87, 65 -1.25 M0.52 0.21 C11.4 0.44, 54.05 0.26, 64.58 0.16" stroke="#000000" stroke-width="1" fill="none"></path></g><g transform="translate(1557.0244143538987 319.6719868979171) rotate(0 31.94747753180559 -0.2120622102172547)"><path d="M37.82 12.25 C43.43 8.62, 50.37 5.17, 63.28 -0.58 M36.23 10.92 C46.97 6.3, 56.96 2.23, 64.97 0.01" stroke="#000000" stroke-width="1" fill="none"></path></g><g transform="translate(1557.0244143538987 319.6719868979171) rotate(0 31.94747753180559 -0.2120622102172547)"><path d="M37.7 -8.27 C43.17 -6.56, 50.15 -4.68, 63.28 -0.58 M36.1 -9.6 C46.87 -6.61, 56.91 -3.07, 64.97 0.01" stroke="#000000" stroke-width="1" fill="none"></path></g></g><g stroke-linecap="round"><g transform="translate(1723.0244143538987 318.6719868979171) rotate(0 26.62264685801233 0.17746848095112)"><path d="M0.09 -0.78 C9.23 -1.02, 45.33 -1.13, 54.56 -1.03 M-1.32 1.42 C7.65 1.26, 44.01 0.03, 53.38 -0.03" stroke="#000000" stroke-width="1" fill="none"></path></g><g transform="translate(1723.0244143538987 318.6719868979171) rotate(0 26.62264685801233 0.17746848095112)"><path d="M26.44 9.21 C33.13 7.93, 41.69 3.51, 51.65 1.61 M27.98 10.75 C34.33 6.55, 39.85 4.14, 53.28 0.95" stroke="#000000" stroke-width="1" fill="none"></path></g><g transform="translate(1723.0244143538987 318.6719868979171) rotate(0 26.62264685801233 0.17746848095112)"><path d="M26.04 -9.6 C32.9 -5.65, 41.57 -4.84, 51.65 1.61 M27.58 -8.06 C34.1 -7.6, 39.72 -5.35, 53.28 0.95" stroke="#000000" stroke-width="1" fill="none"></path></g></g></svg>
