<svg version="1.1" xmlns="http://www.w3.org/2000/svg" viewBox="0 0 2880 1000" width="2880" height="1000">
  <!-- svg-source:excalidraw -->
  
  <defs>
    <style>
      @font-face {
        font-family: "Virgil";
        src: url("https://excalidraw.com/Virgil.woff2");
      }
      @font-face {
        font-family: "Cascadia";
        src: url("https://excalidraw.com/Cascadia.woff2");
      }
    </style>
  </defs>
  <rect x="0" y="0" width="2880" height="1000" fill="#ffffff"></rect><g stroke-linecap="round" transform="translate(10 10) rotate(0 1430 490)"><path d="M0 0 C1052.19 0, 2104.38 0, 2860 0 M0 0 C864.21 0, 1728.42 0, 2860 0 M2860 0 C2860 352.33, 2860 704.66, 2860 980 M2860 0 C2860 382.42, 2860 764.84, 2860 980 M2860 980 C1831.46 980, 802.93 980, 0 980 M2860 980 C2024.8 980, 1189.6 980, 0 980 M0 980 C0 722.63, 0 465.25, 0 0 M0 980 C0 635.96, 0 291.93, 0 0" stroke="#000000" stroke-width="4" fill="none"></path></g><g stroke-linecap="round"><g transform="translate(173.40063506076785 451.0954276295888) rotate(0 1278.453379139408 0.4258612249714133)"><path d="M0.46 0.99 C426.77 1.26, 2131.5 1.45, 2557.66 1.1 M-0.76 0.46 C425.51 0.47, 2130.96 -0.3, 2557.27 -0.44" stroke="#000000" stroke-width="4" fill="none"></path></g><g transform="translate(173.40063506076785 451.0954276295888) rotate(0 1278.453379139408 0.4258612249714133)"><path d="M2558.55 -1.47 L2544.57 7.53 L2544.07 -6.01 L2555.65 -0.38" stroke="none" stroke-width="0" fill="#000000" fill-rule="evenodd"></path><path d="M2558.51 0.89 C2554.78 2.48, 2548.19 4.05, 2542.39 6.9 M2557.18 -0.36 C2553.8 1.32, 2551.82 2.15, 2543.49 5.74 M2543.56 6.61 C2542.64 0.91, 2544.73 -3.3, 2544.23 -6.3 M2543.13 5.65 C2543.55 3.59, 2544.16 0.61, 2543.14 -6.43 M2544.45 -7.29 C2548.88 -5.88, 2551.94 -2.61, 2556.14 -0.56 M2543.37 -6.48 C2549.05 -4.31, 2554.16 -2.74, 2557.6 -0.81 M2557.27 -0.44 C2557.27 -0.44, 2557.27 -0.44, 2557.27 -0.44 M2557.27 -0.44 C2557.27 -0.44, 2557.27 -0.44, 2557.27 -0.44" stroke="#000000" stroke-width="4" fill="none"></path></g></g><g stroke-linecap="round" transform="translate(170 390) rotate(0 60 60)"><path d="M85.11 6.13 C93.91 9.02, 101.71 16.46, 107.49 24.03 C113.26 31.59, 118.46 41.9, 119.77 51.51 C121.07 61.12, 118.8 72.66, 115.32 81.68 C111.85 90.71, 106.43 99.48, 98.91 105.66 C91.38 111.84, 79.94 116.99, 70.16 118.77 C60.39 120.56, 49.31 119.35, 40.26 116.37 C31.21 113.39, 22.42 107.95, 15.88 100.88 C9.34 93.81, 3.14 83.49, 1.02 73.92 C-1.09 64.36, 0.32 53.07, 3.18 43.51 C6.04 33.95, 11.38 23.6, 18.16 16.55 C24.95 9.5, 34.73 3.73, 43.91 1.22 C53.09 -1.3, 65.76 0.42, 73.23 1.48 C80.71 2.54, 85.75 6.26, 88.76 7.58 C91.76 8.91, 91.8 8.77, 91.24 9.42 M56.44 -0.9 C65.9 -2.12, 77.94 1.47, 86.49 5.82 C95.04 10.17, 102.19 17.37, 107.72 25.18 C113.26 32.99, 118.6 43.01, 119.7 52.68 C120.8 62.35, 117.96 74.24, 114.33 83.2 C110.71 92.17, 105.78 100.24, 97.94 106.47 C90.11 112.71, 77.17 119.14, 67.34 120.6 C57.52 122.05, 47.78 118.83, 39.01 115.2 C30.24 111.57, 21.05 106.13, 14.7 98.81 C8.35 91.5, 3.08 81.04, 0.9 71.29 C-1.28 61.54, -1.23 49.49, 1.61 40.32 C4.44 31.16, 10.6 22.86, 17.89 16.32 C25.19 9.79, 38.99 4.02, 45.37 1.11 C51.76 -1.81, 54.46 -0.99, 56.21 -1.16 C57.95 -1.33, 55.59 -1.19, 55.85 0.11" stroke="none" stroke-width="0" fill="#228be6"></path><path d="M85.47 6.27 C94.22 9.66, 103.96 18.24, 109.81 26.24 C115.66 34.25, 119.83 44.68, 120.58 54.31 C121.33 63.94, 118.42 75.06, 114.31 84.01 C110.21 92.97, 103.63 102.31, 95.96 108.04 C88.3 113.76, 77.88 117.03, 68.32 118.37 C58.76 119.72, 47.59 119.43, 38.61 116.1 C29.64 112.78, 20.61 105.65, 14.46 98.41 C8.31 91.16, 3.69 82.13, 1.72 72.63 C-0.24 63.12, -0.19 50.64, 2.66 41.39 C5.51 32.14, 11.77 23.63, 18.82 17.14 C25.86 10.65, 35.45 4.87, 44.93 2.46 C54.4 0.05, 67.51 1.23, 75.65 2.66 C83.79 4.1, 89.32 8.32, 93.76 11.06 C98.2 13.8, 102.65 18.21, 102.29 19.08 M38.16 3.02 C46.61 -0.69, 59.03 0.33, 69.02 2.19 C79.02 4.04, 90.6 8.23, 98.12 14.16 C105.64 20.09, 110.51 29.13, 114.12 37.76 C117.74 46.38, 120.57 56.23, 119.8 65.9 C119.04 75.56, 115.35 87.52, 109.55 95.75 C103.76 103.98, 94.15 111.29, 85.04 115.28 C75.92 119.26, 64.46 120.68, 54.88 119.66 C45.29 118.64, 35.55 114.25, 27.54 109.15 C19.53 104.06, 11.51 97.31, 6.8 89.09 C2.1 80.88, -0.82 69.69, -0.68 59.87 C-0.54 50.05, 2.5 38.7, 7.66 30.17 C12.82 21.64, 24.86 13.29, 30.28 8.67 C35.7 4.05, 38.46 3.24, 40.17 2.46 C41.88 1.68, 40.41 2.7, 40.53 4.02" stroke="#000000" stroke-width="4" fill="none"></path></g><g stroke-linecap="round" transform="translate(990 350) rotate(0 100 97.85714285714312)"><path d="M135.56 6.5 C147.36 9.45, 158.37 18.6, 167.53 27.24 C176.68 35.88, 185.26 46.92, 190.51 58.35 C195.75 69.78, 198.66 83.25, 198.97 95.83 C199.29 108.41, 196.95 122.25, 192.4 133.81 C187.86 145.36, 180.55 156.09, 171.71 165.15 C162.87 174.21, 151.13 183.18, 139.35 188.17 C127.58 193.15, 113.73 195.05, 101.07 195.08 C88.4 195.11, 75.4 193.09, 63.36 188.34 C51.31 183.59, 38.13 175.28, 28.81 166.59 C19.48 157.89, 12.2 147.53, 7.41 136.17 C2.61 124.82, -0.09 111.03, 0.04 98.46 C0.16 85.9, 3.18 72.64, 8.15 60.78 C13.13 48.92, 20.84 36.11, 29.88 27.28 C38.93 18.45, 50.6 12.21, 62.45 7.79 C74.29 3.37, 87.39 0.31, 100.93 0.77 C114.46 1.23, 135.24 8.1, 143.66 10.56 C152.09 13.03, 152.09 14.33, 151.47 15.56 M111.22 0.78 C123.6 0.96, 138.11 7.64, 149.26 13.46 C160.4 19.28, 170.1 25.98, 178.08 35.71 C186.07 45.44, 193.69 59.49, 197.18 71.84 C200.66 84.18, 200.69 97.37, 199 109.76 C197.31 122.16, 193.45 135.17, 187.03 146.22 C180.61 157.26, 170.72 168.17, 160.5 176.04 C150.28 183.9, 138.12 190.09, 125.7 193.42 C113.29 196.74, 98.68 197.79, 86 195.98 C73.32 194.17, 60.73 189.12, 49.63 182.57 C38.52 176.02, 27.08 166.52, 19.35 156.69 C11.61 146.86, 6.2 135.7, 3.22 123.58 C0.24 111.45, -0.45 96.45, 1.48 83.96 C3.41 71.47, 8.24 59.31, 14.8 48.62 C21.35 37.92, 30.42 27.45, 40.8 19.82 C51.17 12.19, 65.51 5.81, 77.06 2.83 C88.61 -0.14, 104.82 1.98, 110.1 1.97 C115.37 1.97, 108.89 1.35, 108.68 2.8" stroke="none" stroke-width="0" fill="#40c057"></path><path d="M141.65 8.44 C153.68 11.96, 165.73 21.63, 174.5 30.98 C183.26 40.34, 190.04 52.68, 194.24 64.55 C198.44 76.42, 200.37 89.67, 199.7 102.21 C199.04 114.75, 195.84 128.39, 190.27 139.78 C184.69 151.17, 175.81 162.19, 166.26 170.53 C156.71 178.87, 144.96 185.65, 132.98 189.82 C120.99 193.99, 107.12 196.12, 94.36 195.56 C81.61 195, 68.06 192.07, 56.45 186.46 C44.83 180.84, 33.21 171.39, 24.67 161.88 C16.12 152.36, 9.23 141.37, 5.2 129.35 C1.17 117.34, -0.48 102.61, 0.47 89.78 C1.43 76.95, 5.15 63.42, 10.94 52.36 C16.74 41.3, 25.28 31.27, 35.23 23.44 C45.18 15.6, 58.51 9.35, 70.63 5.35 C82.75 1.36, 94.44 -2.01, 107.94 -0.51 C121.44 1, 142.95 10.73, 151.65 14.39 C160.35 18.06, 161.1 20.01, 160.17 21.48 M89.71 -0.06 C101.61 -3.25, 116.64 -0.72, 128.73 2.69 C140.83 6.09, 152.4 12.23, 162.3 20.37 C172.19 28.51, 181.78 40.06, 188.09 51.54 C194.4 63.02, 198.98 76.99, 200.16 89.27 C201.34 101.55, 198.81 113.44, 195.14 125.21 C191.48 136.97, 186.13 149.75, 178.17 159.85 C170.21 169.96, 159.05 179.97, 147.38 185.85 C135.7 191.74, 121.21 194.14, 108.12 195.17 C95.03 196.21, 81.23 195.81, 68.84 192.06 C56.46 188.31, 43.48 180.8, 33.8 172.69 C24.11 164.58, 16.25 154.57, 10.74 143.41 C5.22 132.25, 1.49 118.3, 0.73 105.7 C-0.03 93.1, 2.26 80.06, 6.17 67.81 C10.09 55.57, 16 41.84, 24.2 32.24 C32.4 22.63, 44.48 15.46, 55.39 10.19 C66.29 4.92, 84.06 1.84, 89.61 0.63 C95.17 -0.57, 88.73 1.51, 88.7 2.95" stroke="#000000" stroke-width="4" fill="none"></path></g><g stroke-linecap="round" transform="translate(450 390) rotate(0 60 60)"><path d="M71.11 1.42 C80.33 2.53, 91.85 8.92, 99.51 15.21 C107.17 21.49, 113.85 30.3, 117.08 39.15 C120.31 48, 120.67 58.88, 118.91 68.31 C117.15 77.74, 112.37 88.02, 106.51 95.73 C100.65 103.44, 92.53 110.49, 83.77 114.55 C75 118.61, 63.59 120.98, 53.93 120.1 C44.26 119.21, 33.85 114.76, 25.8 109.25 C17.76 103.74, 9.77 95.89, 5.65 87.04 C1.52 78.2, 0.42 66.05, 1.06 56.2 C1.7 46.34, 4.4 35.9, 9.5 27.9 C14.6 19.89, 23.28 12.78, 31.67 8.17 C40.06 3.57, 52.42 1.28, 59.85 0.28 C67.28 -0.72, 72.7 1.2, 76.27 2.16 C79.85 3.12, 81.41 4.96, 81.3 6.04 M80.49 3.58 C89.95 5.41, 99.54 11.92, 105.65 19.13 C111.77 26.34, 115.33 37.2, 117.19 46.83 C119.05 56.47, 119.13 67.69, 116.83 76.92 C114.52 86.16, 110.16 95.59, 103.35 102.25 C96.53 108.9, 85.57 114.35, 75.95 116.84 C66.32 119.33, 55.13 119.53, 45.6 117.2 C36.07 114.87, 26.06 109.21, 18.76 102.86 C11.47 96.51, 5 87.98, 1.84 79.1 C-1.32 70.22, -2.49 59.37, -0.19 49.6 C2.1 39.83, 9.18 28.09, 15.6 20.49 C22.02 12.89, 29.51 7.18, 38.33 4 C47.14 0.81, 61.76 1.35, 68.49 1.38 C75.22 1.41, 77.12 3.6, 78.71 4.18 C80.29 4.76, 78.27 3.84, 78.01 4.85" stroke="none" stroke-width="0" fill="#fd7e14"></path><path d="M32.53 7.39 C40.15 2.14, 51.5 -1.15, 61.07 -0.87 C70.63 -0.59, 81.55 3.94, 89.89 9.08 C98.24 14.22, 106 21.56, 111.13 29.98 C116.26 38.39, 120.31 49.86, 120.67 59.56 C121.03 69.26, 117.91 79.62, 113.29 88.19 C108.66 96.75, 101.14 105.68, 92.93 110.94 C84.72 116.2, 73.86 119.07, 64 119.77 C54.15 120.47, 42.74 119.28, 33.82 115.14 C24.9 111, 16 103.07, 10.51 94.92 C5.02 86.77, 1.85 75.98, 0.87 66.25 C-0.1 56.52, 0.87 45.59, 4.66 36.55 C8.45 27.5, 17.53 17.34, 23.63 11.96 C29.72 6.58, 36.9 6.05, 41.25 4.27 C45.61 2.49, 49.55 0.4, 49.74 1.28 M45.88 2.82 C54.75 -0.61, 66.24 -0.95, 75.78 1.36 C85.32 3.68, 96.03 9.94, 103.1 16.72 C110.18 23.51, 115.74 32.73, 118.25 42.09 C120.76 51.44, 120.42 63.38, 118.14 72.87 C115.86 82.35, 111.15 91.89, 104.58 98.97 C98 106.06, 87.88 111.8, 78.7 115.39 C69.52 118.97, 58.68 121.76, 49.48 120.49 C40.27 119.22, 31.17 113.92, 23.47 107.77 C15.78 101.63, 7.01 93.06, 3.3 83.61 C-0.4 74.17, -0.11 61.19, 1.25 51.11 C2.61 41.03, 5.98 30.81, 11.47 23.14 C16.95 15.47, 28.54 8.4, 34.16 5.08 C39.77 1.77, 43.42 3.74, 45.14 3.23 C46.86 2.72, 44.03 1.2, 44.47 2.04" stroke="#000000" stroke-width="4" fill="none"></path></g><g stroke-linecap="round" transform="translate(730 390) rotate(0 60 60)"><path d="M72.26 2.31 C81.6 3.32, 93.11 8.34, 100.5 14.62 C107.89 20.9, 113.46 30.62, 116.6 39.99 C119.74 49.37, 121.12 61.26, 119.33 70.88 C117.55 80.51, 112.14 90.35, 105.89 97.74 C99.64 105.12, 90.81 111.47, 81.83 115.2 C72.86 118.93, 61.52 121.16, 52.04 120.12 C42.55 119.07, 32.54 114.92, 24.9 108.94 C17.27 102.96, 10.19 93.03, 6.2 84.25 C2.22 75.47, 0.33 65.71, 0.99 56.28 C1.66 46.85, 5.03 36.09, 10.19 27.69 C15.35 19.29, 23.3 10.59, 31.94 5.89 C40.57 1.19, 54.34 -0.1, 61.99 -0.51 C69.63 -0.92, 74.49 2.43, 77.8 3.43 C81.12 4.42, 82.32 4.65, 81.9 5.44 M36.87 4.58 C45.04 0.75, 56.61 0.48, 66.7 1.57 C76.79 2.65, 89.47 5.42, 97.41 11.09 C105.36 16.77, 110.68 26.47, 114.36 35.63 C118.05 44.78, 120.4 56.18, 119.51 66.03 C118.62 75.88, 114.62 86.69, 109.03 94.71 C103.45 102.73, 94.66 109.7, 86.02 114.14 C77.39 118.57, 66.73 122.06, 57.21 121.31 C47.68 120.55, 37.01 114.85, 28.86 109.62 C20.71 104.39, 13.21 98.27, 8.31 89.92 C3.41 81.58, -0.46 69.45, -0.55 59.56 C-0.64 49.68, 2.97 38.94, 7.78 30.62 C12.58 22.31, 23.05 13.84, 28.28 9.68 C33.52 5.51, 37.4 6.17, 39.18 5.64 C40.97 5.12, 38.62 5.62, 39 6.53" stroke="none" stroke-width="0" fill="#fd7e14"></path><path d="M75.85 3.2 C84.87 4.9, 94.67 10.95, 101.72 17.61 C108.78 24.26, 115.41 33.82, 118.19 43.13 C120.97 52.44, 120.6 64.06, 118.4 73.47 C116.2 82.88, 111.4 92.18, 104.99 99.58 C98.59 106.98, 89.22 114.78, 79.95 117.86 C70.69 120.95, 59.1 119.94, 49.4 118.08 C39.7 116.23, 29.39 112.84, 21.75 106.72 C14.11 100.59, 6.94 90.45, 3.55 81.33 C0.17 72.2, -0.1 61.54, 1.45 51.97 C3 42.4, 7.18 31.59, 12.84 23.91 C18.49 16.24, 26.6 9.78, 35.37 5.93 C44.14 2.07, 57.48 1, 65.45 0.78 C73.42 0.55, 79.12 3.16, 83.21 4.58 C87.3 5.99, 90.39 8.42, 89.98 9.27 M36.85 6.34 C44.82 1.77, 54.75 1.06, 64.37 1.53 C73.99 1.99, 86.38 4.08, 94.55 9.14 C102.72 14.2, 109.34 23.04, 113.4 31.91 C117.46 40.78, 119.36 52.2, 118.92 62.37 C118.49 72.54, 115.92 84.77, 110.77 92.95 C105.62 101.13, 96.32 106.85, 88.01 111.46 C79.71 116.07, 70.27 120.52, 60.94 120.6 C51.62 120.67, 40.62 116.53, 32.06 111.9 C23.5 107.28, 14.94 101.16, 9.58 92.84 C4.23 84.52, 0.4 71.75, -0.07 61.99 C-0.55 52.23, 2.11 42.64, 6.72 34.28 C11.32 25.92, 22.69 16.78, 27.56 11.83 C32.43 6.87, 34.66 5.72, 35.92 4.55 C37.19 3.39, 35.02 3.78, 35.13 4.85" stroke="#000000" stroke-width="4" fill="none"></path></g><g stroke-linecap="round" transform="translate(1350 390) rotate(0 60 60)"><path d="M66.85 0.69 C75.93 1.11, 87.07 6.2, 95.17 11.92 C103.26 17.63, 111.34 26.25, 115.43 34.99 C119.52 43.73, 120.67 54.74, 119.69 64.36 C118.72 73.99, 115.06 84.68, 109.58 92.73 C104.1 100.78, 95.6 108.09, 86.83 112.67 C78.06 117.25, 66.76 120.35, 56.94 120.23 C47.13 120.11, 35.97 117.15, 27.95 111.94 C19.92 106.74, 13.5 97.59, 8.79 89.02 C4.09 80.44, -0.01 70.06, -0.27 60.5 C-0.54 50.94, 2.55 40.1, 7.21 31.66 C11.87 23.22, 19.51 15.06, 27.68 9.86 C35.86 4.65, 47.48 1.33, 56.25 0.43 C65.01 -0.46, 74.35 3, 80.26 4.48 C86.16 5.97, 91.93 8.5, 91.69 9.35 M48.78 0.96 C57.92 -1.43, 70.29 1.1, 79.81 4.31 C89.33 7.51, 99.26 12.99, 105.9 20.21 C112.55 27.43, 117.5 38.04, 119.68 47.64 C121.86 57.23, 122.03 68.69, 118.97 77.78 C115.91 86.88, 108.55 95.49, 101.31 102.2 C94.07 108.91, 84.86 115.39, 75.55 118.07 C66.24 120.74, 54.76 120.49, 45.46 118.26 C36.16 116.02, 26.7 111.1, 19.73 104.67 C12.75 98.23, 6.92 89.01, 3.61 79.64 C0.3 70.26, -1.76 58.2, -0.13 48.42 C1.5 38.64, 6.92 28.31, 13.37 20.94 C19.81 13.57, 32.55 7.47, 38.54 4.21 C44.52 0.95, 47.75 1.76, 49.3 1.38 C50.85 1, 47.63 0.96, 47.85 1.92" stroke="none" stroke-width="0" fill="#228be6"></path><path d="M80.94 3.28 C90.01 5.56, 99.35 12.59, 105.59 19.92 C111.82 27.25, 116.42 37.79, 118.36 47.29 C120.29 56.79, 120.11 67.74, 117.2 76.93 C114.29 86.11, 107.89 95.39, 100.88 102.4 C93.87 109.4, 84.3 116.19, 75.14 118.94 C65.98 121.69, 55.46 121.32, 45.94 118.89 C36.42 116.47, 25.14 111.35, 18.02 104.38 C10.91 97.4, 6.06 86.62, 3.24 77.05 C0.42 67.48, -0.7 56.36, 1.09 46.93 C2.88 37.51, 7.61 27.57, 13.98 20.51 C20.35 13.45, 30.2 7.95, 39.33 4.56 C48.46 1.17, 60.32 -0.43, 68.74 0.15 C77.16 0.73, 85.03 5.74, 89.85 8.02 C94.67 10.3, 98.19 12.88, 97.67 13.83 M58.3 1.5 C67.86 0.19, 79.7 2.69, 88.14 6.63 C96.57 10.58, 103.88 17.45, 108.91 25.19 C113.94 32.93, 117.28 43.39, 118.32 53.09 C119.35 62.79, 118.78 74.16, 115.11 83.41 C111.45 92.66, 104.08 102.54, 96.33 108.59 C88.58 114.64, 78.4 118.24, 68.63 119.7 C58.86 121.17, 46.63 121.01, 37.71 117.36 C28.8 113.71, 21.26 105.52, 15.16 97.81 C9.06 90.09, 3.08 80.33, 1.12 71.07 C-0.83 61.8, 0.55 51.39, 3.41 42.2 C6.27 33.01, 11.32 22.78, 18.28 15.92 C25.25 9.06, 38.89 3.53, 45.2 1.03 C51.51 -1.48, 54.06 0.75, 56.13 0.89 C58.2 1.03, 57.23 1.27, 57.62 1.9" stroke="#000000" stroke-width="4" fill="none"></path></g><g stroke-linecap="round" transform="translate(1610 390) rotate(0 59.999999999999986 60)"><path d="M49.59 0.1 C58.78 -2.12, 71.03 0.97, 80.1 4.22 C89.17 7.47, 97.62 12.54, 104.03 19.58 C110.44 26.63, 116.22 37.01, 118.57 46.48 C120.91 55.95, 120.72 67.15, 118.09 76.42 C115.46 85.7, 109.74 95.25, 102.78 102.12 C95.82 109, 85.68 114.96, 76.33 117.68 C66.99 120.41, 56.4 120.7, 46.71 118.49 C37.03 116.29, 25.46 111.16, 18.23 104.44 C11 97.73, 6.26 87.52, 3.34 78.22 C0.43 68.92, -1.04 58.13, 0.73 48.63 C2.51 39.13, 7.57 28.56, 13.99 21.23 C20.42 13.89, 32.8 8.01, 39.27 4.62 C45.74 1.24, 50.14 1.31, 52.81 0.92 C55.49 0.52, 55.19 1.21, 55.31 2.28 M40.97 2.61 C49.49 -1.03, 61.06 -0.64, 70.67 1.3 C80.28 3.24, 90.96 8.32, 98.63 14.26 C106.3 20.2, 113.25 28.05, 116.68 36.91 C120.1 45.77, 120.7 57.59, 119.17 67.42 C117.64 77.26, 113.24 87.99, 107.49 95.93 C101.74 103.86, 93.41 111.31, 84.66 115.05 C75.91 118.78, 64.78 119.16, 55 118.32 C45.21 117.48, 34.01 115.22, 25.94 110.02 C17.86 104.82, 10.86 96.09, 6.55 87.12 C2.24 78.15, -0.34 65.94, 0.07 56.22 C0.47 46.49, 3.66 37.01, 8.99 28.76 C14.32 20.52, 26.9 11.26, 32.06 6.75 C37.21 2.24, 38.57 2.04, 39.93 1.72 C41.29 1.39, 40.02 3.67, 40.22 4.8" stroke="none" stroke-width="0" fill="#228be6"></path><path d="M56.3 -0.5 C65.45 -2.12, 77.52 1.89, 86.08 6.07 C94.64 10.24, 102.24 16.88, 107.68 24.56 C113.13 32.24, 117.47 42.48, 118.75 52.14 C120.02 61.81, 118.72 73.55, 115.33 82.54 C111.94 91.53, 106.07 99.85, 98.39 106.06 C90.71 112.27, 78.95 117.9, 69.25 119.78 C59.56 121.65, 49.33 120.63, 40.21 117.32 C31.08 114.01, 20.84 107.39, 14.5 99.91 C8.16 92.43, 4.22 81.99, 2.15 72.45 C0.09 62.91, -0.71 51.8, 2.12 42.67 C4.96 33.53, 11.91 24.4, 19.17 17.65 C26.44 10.9, 39.39 5.21, 45.71 2.17 C52.04 -0.87, 54.96 -0.26, 57.1 -0.59 C59.25 -0.91, 58.44 -0.77, 58.58 0.23 M65.61 -0.23 C75.04 -0.11, 87.3 6.25, 95.24 11.83 C103.18 17.41, 109.1 24.75, 113.25 33.26 C117.41 41.76, 120.29 53.41, 120.17 62.87 C120.06 72.33, 117.62 81.99, 112.54 90.02 C107.46 98.05, 98.53 106.26, 89.7 111.07 C80.87 115.88, 69.24 118.59, 59.57 118.87 C49.9 119.15, 40.01 117.13, 31.69 112.75 C23.37 108.38, 15.15 100.73, 9.65 92.61 C4.14 84.49, -0.98 73.86, -1.35 64.04 C-1.71 54.21, 2.71 42.68, 7.47 33.65 C12.23 24.62, 19.61 15.37, 27.23 9.85 C34.85 4.33, 46.99 2.11, 53.21 0.54 C59.43 -1.02, 62.35 0.37, 64.55 0.45 C66.75 0.53, 66.37 0.23, 66.39 1.03" stroke="#000000" stroke-width="4" fill="none"></path></g><g stroke-linecap="round" transform="translate(1932 390) rotate(0 59.999999999999986 60)"><path d="M42.94 2.95 C51.28 -0.56, 61.73 -0.2, 71.18 1.68 C80.63 3.56, 92.16 7.92, 99.63 14.24 C107.09 20.57, 112.75 30.42, 115.98 39.63 C119.22 48.83, 120.46 59.76, 119.05 69.47 C117.64 79.19, 113.38 90.2, 107.54 97.91 C101.71 105.63, 92.98 111.99, 84.06 115.74 C75.14 119.49, 63.71 121.46, 54.02 120.43 C44.33 119.4, 34.06 115.41, 25.9 109.56 C17.74 103.71, 9.43 94.23, 5.06 85.32 C0.69 76.41, -1.02 65.79, -0.31 56.1 C0.4 46.42, 3.9 35.35, 9.32 27.21 C14.74 19.07, 25.47 11.54, 32.22 7.25 C38.97 2.97, 45.8 2.51, 49.8 1.48 C53.81 0.45, 56.2 0.25, 56.24 1.08 M58.8 -1.42 C67.94 -2.5, 78.96 2.49, 87.56 7.29 C96.16 12.09, 105.01 19.5, 110.39 27.38 C115.78 35.27, 119.19 44.88, 119.86 54.6 C120.52 64.31, 118.31 76.8, 114.41 85.67 C110.51 94.53, 104.46 102.37, 96.44 107.78 C88.41 113.19, 76.29 116.75, 66.26 118.11 C56.23 119.47, 45.39 119.46, 36.27 115.92 C27.15 112.39, 17.54 104.47, 11.53 96.9 C5.52 89.33, 1.56 79.92, 0.21 70.52 C-1.14 61.11, -0.01 49.8, 3.43 40.48 C6.86 31.16, 13.37 20.94, 20.84 14.61 C28.3 8.28, 41.76 5.12, 48.19 2.51 C54.63 -0.1, 57.86 -1.06, 59.44 -1.04 C61.03 -1.02, 57.89 1.28, 57.68 2.63" stroke="none" stroke-width="0" fill="#40c057"></path><path d="M36.22 5.91 C44.38 1.34, 55.49 -0.11, 65.26 0.65 C75.03 1.41, 86.82 4.97, 94.82 10.46 C102.81 15.96, 108.94 24.74, 113.24 33.64 C117.54 42.54, 120.86 54.15, 120.63 63.86 C120.39 73.58, 117.17 83.93, 111.83 91.93 C106.5 99.93, 97.46 107.35, 88.63 111.86 C79.8 116.38, 68.49 119.05, 58.86 119.03 C49.22 119, 39.1 116.24, 30.8 111.7 C22.5 107.17, 14.12 99.99, 9.05 91.82 C3.98 83.65, 0.86 72.34, 0.37 62.7 C-0.12 53.07, 1.61 42.77, 6.1 34 C10.58 25.23, 20.79 15.4, 27.27 10.08 C33.76 4.76, 40.44 3.36, 45 2.08 C49.56 0.81, 54.57 1.45, 54.65 2.44 M35.61 5.86 C43.83 1.53, 55.78 0.27, 65.12 1.15 C74.46 2.03, 83.42 5.89, 91.63 11.16 C99.85 16.42, 109.52 24.4, 114.43 32.73 C119.34 41.06, 121.8 51.41, 121.11 61.12 C120.41 70.84, 115.56 82.53, 110.25 91.04 C104.93 99.54, 97.26 107.39, 89.24 112.15 C81.21 116.91, 71.73 119.63, 62.1 119.59 C52.47 119.55, 40.3 116.63, 31.48 111.91 C22.65 107.18, 14.47 99.48, 9.16 91.23 C3.84 82.99, 0.31 71.91, -0.43 62.44 C-1.16 52.98, 0.67 42.86, 4.75 34.45 C8.84 26.05, 18.84 16.98, 24.09 12.02 C29.35 7.07, 34.47 5.58, 36.27 4.7 C38.07 3.82, 34.75 5.58, 34.88 6.75" stroke="#000000" stroke-width="4" fill="none"></path></g><g stroke-linecap="round" transform="translate(2386.5 390) rotate(0 60 60)"><path d="M46.5 1.74 C55.34 -1.05, 67.61 0.22, 77.06 2.77 C86.52 5.31, 96.46 10.23, 103.21 17.02 C109.97 23.81, 115.16 33.99, 117.62 43.5 C120.08 53, 120.21 64.5, 117.98 74.06 C115.75 83.62, 110.76 93.87, 104.25 100.87 C97.74 107.87, 88.23 113.01, 78.92 116.06 C69.6 119.12, 57.94 120.86, 48.36 119.19 C38.79 117.52, 28.87 112.49, 21.46 106.04 C14.04 99.59, 7.35 89.59, 3.89 80.49 C0.42 71.38, -0.89 61.01, 0.68 51.41 C2.25 41.8, 7.46 30.77, 13.3 22.86 C19.15 14.94, 29.67 7.54, 35.76 3.91 C41.84 0.29, 46.88 1.54, 49.81 1.09 C52.74 0.64, 53.15 0.19, 53.34 1.21 M57.13 0.62 C66.4 -0.55, 79.45 3.2, 88.01 7.33 C96.57 11.46, 102.95 17.57, 108.47 25.37 C114 33.17, 119.93 44.52, 121.16 54.15 C122.4 63.78, 119.93 73.99, 115.88 83.14 C111.83 92.28, 104.99 102.87, 96.84 109.02 C88.7 115.16, 76.74 118.89, 67.03 120 C57.31 121.11, 47.64 119.15, 38.56 115.69 C29.49 112.23, 18.85 106.6, 12.58 99.22 C6.31 91.83, 2.49 80.93, 0.94 71.36 C-0.62 61.79, -0.06 51.07, 3.23 41.8 C6.52 32.54, 13.41 22.49, 20.66 15.76 C27.91 9.03, 40.58 3.98, 46.75 1.42 C52.91 -1.14, 56.07 0.27, 57.65 0.41 C59.22 0.54, 56.2 1.22, 56.21 2.23" stroke="none" stroke-width="0" fill="#40c057"></path><path d="M70.5 1.71 C79.7 2.39, 89.39 7.09, 96.9 12.98 C104.41 18.88, 111.6 28.29, 115.55 37.1 C119.5 45.91, 121.68 56.35, 120.59 65.85 C119.5 75.36, 114.92 86.17, 109.02 94.12 C103.12 102.07, 93.97 109.22, 85.2 113.54 C76.44 117.86, 66.02 120.5, 56.43 120.06 C46.84 119.63, 36.09 116.14, 27.68 110.93 C19.27 105.72, 10.46 97.48, 5.98 88.8 C1.5 80.12, 0.3 68.8, 0.81 58.85 C1.32 48.91, 4.38 37.54, 9.04 29.14 C13.71 20.73, 20.61 13.27, 28.8 8.44 C36.98 3.61, 49.84 1.15, 58.16 0.15 C66.47 -0.84, 74.14 1.43, 78.67 2.46 C83.19 3.49, 85.76 5.45, 85.3 6.33 M49.72 -0.33 C59.05 -2.4, 71.44 1.42, 80.44 4.71 C89.45 8.01, 97.38 12.5, 103.74 19.45 C110.1 26.39, 116.17 36.93, 118.6 46.4 C121.04 55.86, 120.92 66.99, 118.34 76.22 C115.75 85.46, 110.08 94.92, 103.11 101.82 C96.14 108.72, 85.83 114.82, 76.51 117.61 C67.18 120.41, 56.96 120.75, 47.17 118.59 C37.37 116.43, 25 111.42, 17.73 104.66 C10.46 97.9, 6.4 87.36, 3.54 78.04 C0.67 68.71, -1.19 58.19, 0.54 48.72 C2.26 39.25, 7.41 28.5, 13.9 21.21 C20.39 13.93, 33.33 8.3, 39.48 5.01 C45.63 1.72, 48.91 1.77, 50.79 1.49 C52.67 1.22, 50.62 2.27, 50.77 3.37" stroke="#000000" stroke-width="4" fill="none"></path></g><g transform="translate(170 570) rotate(0 58 30)"><text x="58" y="48" font-family="Cascadia, Segoe UI Emoji" font-size="49.50381030867541px" fill="#000000" text-anchor="middle" style="white-space: pre;" direction="ltr">1997</text></g><g transform="translate(450.16697711269353 570) rotate(0 58 30)"><text x="58" y="48" font-family="Cascadia, Segoe UI Emoji" font-size="49.50381030867541px" fill="#000000" text-anchor="middle" style="white-space: pre;" direction="ltr">2001</text></g><g transform="translate(730.1669771126935 570) rotate(0 58 30)"><text x="58" y="48" font-family="Cascadia, Segoe UI Emoji" font-size="49.50381030867541px" fill="#000000" text-anchor="middle" style="white-space: pre;" direction="ltr">2002</text></g><g transform="translate(1030 570) rotate(0 58 30)"><text x="58" y="48" font-family="Cascadia, Segoe UI Emoji" font-size="49.50381030867541px" fill="#000000" text-anchor="middle" style="white-space: pre;" direction="ltr">2004</text></g><g transform="translate(1350.1669771126935 570) rotate(0 58 30)"><text x="58" y="48" font-family="Cascadia, Segoe UI Emoji" font-size="49.50381030867541px" fill="#000000" text-anchor="middle" style="white-space: pre;" direction="ltr">2006</text></g><g transform="translate(1610.1669771126935 570) rotate(0 58 30)"><text x="58" y="48" font-family="Cascadia, Segoe UI Emoji" font-size="49.50381030867541px" fill="#000000" text-anchor="middle" style="white-space: pre;" direction="ltr">2011</text></g><g transform="translate(1932.1669771126935 570) rotate(0 58 30)"><text x="58" y="48" font-family="Cascadia, Segoe UI Emoji" font-size="49.50381030867541px" fill="#000000" text-anchor="middle" style="white-space: pre;" direction="ltr">2014</text></g><g transform="translate(2386.6669771126935 570) rotate(0 58 30)"><text x="58" y="48" font-family="Cascadia, Segoe UI Emoji" font-size="49.50381030867541px" fill="#000000" text-anchor="middle" style="white-space: pre;" direction="ltr">2018</text></g><g transform="translate(110 650) rotate(0 113.53633517776689 28.98800047091936)"><text x="113.53633517776684" y="46.976000941838386" font-family="Cascadia, Segoe UI Emoji" font-size="48.31333411819867px" fill="#000000" text-anchor="middle" style="white-space: pre;" direction="ltr">JDBC 1.0</text></g><g transform="translate(572.5 790) rotate(0 72.5 33)"><text x="72.5" y="49" font-family="Cascadia, Segoe UI Emoji" font-size="48.31333411819867px" fill="#000000" text-anchor="middle" style="white-space: pre;" direction="ltr">连接池</text></g><g transform="translate(950 650) rotate(0 141.5 29)"><text x="141.5" y="47" font-family="Cascadia, Segoe UI Emoji" font-size="48.31333411819867px" fill="#000000" text-anchor="middle" style="white-space: pre;" direction="ltr">Spring 1.0</text></g><g transform="translate(1592 650) rotate(0 71 29)"><text x="71" y="47" font-family="Cascadia, Segoe UI Emoji" font-size="48.31333411819867px" fill="#000000" text-anchor="middle" style="white-space: pre;" direction="ltr">JDK 7</text></g><g transform="translate(1785 650) rotate(0 198 29)"><text x="198" y="47" font-family="Cascadia, Segoe UI Emoji" font-size="48.31333411819867px" fill="#000000" text-anchor="middle" style="white-space: pre;" direction="ltr">SpringBoot 1.0</text></g><g transform="translate(2239.5 650) rotate(0 198 29)"><text x="198" y="47" font-family="Cascadia, Segoe UI Emoji" font-size="48.31333411819867px" fill="#000000" text-anchor="middle" style="white-space: pre;" direction="ltr">SpringBoot 2.0</text></g><g transform="translate(370 190) rotate(0 155.5 29)"><text x="155.5" y="47" font-family="Cascadia, Segoe UI Emoji" font-size="48.31333411819867px" fill="#000000" text-anchor="middle" style="white-space: pre;" direction="ltr">Rob Johnson</text></g><g transform="translate(471.9636648222331 110) rotate(0 58 30)"><text x="58" y="48" font-family="Cascadia, Segoe UI Emoji" font-size="49.50381030867541px" fill="#000000" text-anchor="middle" style="white-space: pre;" direction="ltr">2002</text></g><g transform="translate(1031.963664822233 110) rotate(0 58 30)"><text x="58" y="48" font-family="Cascadia, Segoe UI Emoji" font-size="49.50381030867541px" fill="#000000" text-anchor="middle" style="white-space: pre;" direction="ltr">2004</text></g><g transform="translate(1611.963664822233 110) rotate(0 58 30)"><text x="58" y="48" font-family="Cascadia, Segoe UI Emoji" font-size="49.50381030867541px" fill="#000000" text-anchor="middle" style="white-space: pre;" direction="ltr">2011</text></g><g transform="translate(2371.963664822233 110) rotate(0 58 30)"><text x="58" y="48" font-family="Cascadia, Segoe UI Emoji" font-size="49.50381030867541px" fill="#000000" text-anchor="middle" style="white-space: pre;" direction="ltr">2018</text></g><g transform="translate(944 190) rotate(0 141.5 29)"><text x="141.5" y="47" font-family="Cascadia, Segoe UI Emoji" font-size="48.31333411819867px" fill="#000000" text-anchor="middle" style="white-space: pre;" direction="ltr">Spring 1.0</text></g><g transform="translate(1591.963664822233 190) rotate(0 71 29)"><text x="71" y="47" font-family="Cascadia, Segoe UI Emoji" font-size="48.31333411819867px" fill="#000000" text-anchor="middle" style="white-space: pre;" direction="ltr">JDK 7</text></g><g transform="translate(2224.963664822233 190) rotate(0 198 29)"><text x="198" y="47" font-family="Cascadia, Segoe UI Emoji" font-size="48.31333411819867px" fill="#000000" text-anchor="middle" style="white-space: pre;" direction="ltr">SpringBoot 2.0</text></g><g transform="translate(130 710) rotate(0 99.5 19)"><text x="99.5" y="28" font-family="Cascadia, Segoe UI Emoji" font-size="28px" fill="#000000" text-anchor="middle" style="white-space: pre;" direction="ltr">随JDK 1.1发布</text></g><g transform="translate(550 850) rotate(0 102 19)"><text x="102" y="28" font-family="Cascadia, Segoe UI Emoji" font-size="28px" fill="#000000" text-anchor="middle" style="white-space: pre;" direction="ltr">C3P0/DBCP诞生</text></g><g transform="translate(970 710) rotate(0 126.5 19)"><text x="126.5" y="28" font-family="Cascadia, Segoe UI Emoji" font-size="28px" fill="#000000" text-anchor="middle" style="white-space: pre;" direction="ltr">JDBCTemplate诞生</text></g><g transform="translate(1570 710) rotate(0 84 19)"><text x="84" y="28" font-family="Cascadia, Segoe UI Emoji" font-size="28px" fill="#000000" text-anchor="middle" style="white-space: pre;" direction="ltr">异常子类体系</text></g><g transform="translate(1926.5 710) rotate(0 56 19)"><text x="56" y="28" font-family="Cascadia, Segoe UI Emoji" font-size="28px" fill="#000000" text-anchor="middle" style="white-space: pre;" direction="ltr">自动配置</text></g><g transform="translate(2349 710) rotate(0 93.5 19)"><text x="93.5" y="28" font-family="Cascadia, Segoe UI Emoji" font-size="28px" fill="#000000" text-anchor="middle" style="white-space: pre;" direction="ltr">默认HikariCP</text></g><g transform="translate(2342.463664822233 250) rotate(0 93.5 19)"><text x="93.5" y="28" font-family="Cascadia, Segoe UI Emoji" font-size="28px" fill="#000000" text-anchor="middle" style="white-space: pre;" direction="ltr">默认HikariCP</text></g><g transform="translate(1528.463664822233 250) rotate(0 147.5 17)"><text x="147.5" y="27" font-family="Cascadia, Segoe UI Emoji" font-size="28px" fill="#000000" text-anchor="middle" style="white-space: pre;" direction="ltr">try-with-resources</text></g><g transform="translate(982.4636648222331 250) rotate(0 126.5 19)"><text x="126.5" y="28" font-family="Cascadia, Segoe UI Emoji" font-size="28px" fill="#000000" text-anchor="middle" style="white-space: pre;" direction="ltr">JDBCTemplate诞生</text></g><g transform="translate(411.9636648222331 250) rotate(0 117 19)"><text x="117" y="28" font-family="Cascadia, Segoe UI Emoji" font-size="28px" fill="#000000" text-anchor="middle" style="white-space: pre;" direction="ltr">出版J2EE经典著作</text></g><g stroke-linecap="round"><g transform="translate(530 670) rotate(0 49.20727384984491 49.91600586473942)"><path d="M-1.06 -1.01 C12.28 5.53, 63.65 22.08, 80.4 39.05 C97.16 56.02, 96.17 90.55, 99.47 100.84 M0.59 1.08 C13.77 7.76, 63.36 23.78, 79.67 40.09 C95.98 56.4, 94.94 89.18, 98.43 98.94" stroke="#000000" stroke-width="4" fill="none"></path></g><g transform="translate(530 670) rotate(0 49.20727384984491 49.91600586473942)"><path d="M98.01 97.45 L89.36 88.53 L104.07 85.31 L99.08 99.8" stroke="none" stroke-width="0" fill="#000000" fill-rule="evenodd"></path><path d="M97.17 99.44 C94.4 94.14, 93.76 91.02, 90.78 85.5 M98.91 98.57 C95.59 94.72, 91.61 90.16, 90.2 86.24 M89.12 87 C94.55 85.82, 98.11 83.9, 101.8 83.75 M89.51 86.34 C93.6 86.33, 96.06 85.19, 101.72 84.07 M102.37 84.06 C101.98 88.36, 100.5 93.9, 99.17 98.93 M102.85 84.39 C101.69 88.02, 100.31 92.36, 98.7 99.24 M98.43 98.94 C98.43 98.94, 98.43 98.94, 98.43 98.94 M98.43 98.94 C98.43 98.94, 98.43 98.94, 98.43 98.94" stroke="#000000" stroke-width="4" fill="none"></path></g></g><g stroke-linecap="round"><g transform="translate(750 670) rotate(0 -40.242215700140264 49.82950628697881)"><path d="M-0.7 -1.02 C-10.87 5.85, -47.38 23.21, -60.69 40.16 C-74 57.11, -77.35 90.76, -80.56 100.68 M1.13 1.06 C-8.67 8.24, -44.55 25.51, -58.34 41.79 C-72.14 58.06, -78.07 88.88, -81.61 98.69" stroke="#000000" stroke-width="4" fill="none"></path></g><g transform="translate(750 670) rotate(0 -40.242215700140264 49.82950628697881)"><path d="M-81.37 97.65 L-83.8 82.91 L-73.46 85.64 L-82.48 99.27" stroke="none" stroke-width="0" fill="#000000" fill-rule="evenodd"></path><path d="M-82.89 97.83 C-82.01 93.17, -82.09 89.15, -84.23 84.85 M-81.25 98.69 C-82.45 95.6, -83.13 91.66, -83.9 84.21 M-83.4 84.37 C-79.7 84.1, -78.57 85.14, -71.99 86.49 M-83.39 83.71 C-80.74 84.98, -77.44 85.8, -71.64 87.63 M-70.49 87.22 C-74.32 88.95, -76.64 94.08, -80.26 99.35 M-71.07 87.9 C-75.59 91.89, -77.76 94.92, -81.09 99.08 M-81.61 98.69 C-81.61 98.69, -81.61 98.69, -81.61 98.69 M-81.61 98.69 C-81.61 98.69, -81.61 98.69, -81.61 98.69" stroke="#000000" stroke-width="4" fill="none"></path></g></g><g stroke-linecap="round"><g transform="translate(230.2553353458643 351.322641198346) rotate(0 59.93889839798214 -40.88681724474782)"><path d="M-0.26 1.11 C9.93 -8.88, 40.77 -47.15, 60.83 -60.8 C80.9 -74.45, 110.31 -77.55, 120.13 -80.81 M1.81 0.64 C11.95 -9.62, 40.83 -48.72, 60.46 -62.65 C80.08 -76.57, 109.64 -79.6, 119.57 -82.88" stroke="#000000" stroke-width="4" fill="none"></path></g><g transform="translate(230.2553353458643 351.322641198346) rotate(0 59.93889839798214 -40.88681724474782)"><path d="M117.61 -83 L109.23 -71.8 L105.58 -84.54 L120.99 -83.15" stroke="none" stroke-width="0" fill="#000000" fill-rule="evenodd"></path><path d="M120.96 -81.52 C116.88 -79.83, 113.58 -77.66, 109.06 -72.65 M119.56 -82.36 C117.53 -80.09, 115.29 -79.1, 108.39 -73.78 M107.52 -72.65 C106.78 -79.63, 106.63 -82.95, 106.03 -85.11 M107.96 -74.18 C107.67 -76.48, 106.03 -79.52, 104.58 -86.47 M104.29 -84.41 C107.58 -84.27, 109.68 -84.4, 118.86 -83.89 M104.78 -86.25 C109.37 -85.07, 113.05 -84.27, 119.94 -83.56 M119.57 -82.88 C119.57 -82.88, 119.57 -82.88, 119.57 -82.88 M119.57 -82.88 C119.57 -82.88, 119.57 -82.88, 119.57 -82.88" stroke="#000000" stroke-width="4" fill="none"></path></g></g><g stroke-linecap="round"><g transform="translate(789.7277206383553 350.8401788231822) rotate(0 70.58497590647073 -40.326839544037284)"><path d="M1.14 0.78 C11.06 -9.05, 36.96 -46.59, 60.26 -60 C83.55 -73.41, 127.38 -76.14, 140.9 -79.69 M0.27 0.14 C9.97 -9.93, 35.94 -48.09, 59.3 -61.68 C82.67 -75.27, 127.26 -78.31, 140.46 -81.43" stroke="#000000" stroke-width="4" fill="none"></path></g><g transform="translate(789.7277206383553 350.8401788231822) rotate(0 70.58497590647073 -40.326839544037284)"><path d="M139.48 -80.8 L127.25 -74.64 L124.41 -87.27 L139.79 -80.01" stroke="none" stroke-width="0" fill="#000000" fill-rule="evenodd"></path><path d="M141.43 -81.45 C136.95 -77.48, 132.86 -73.87, 127.5 -71.83 M141.1 -81.6 C137.71 -79.2, 133.04 -76.31, 128.2 -72.31 M128.03 -72.68 C126.18 -76.33, 126.81 -82.74, 126.06 -86.11 M128.24 -73.25 C128.37 -75.81, 127.75 -78.88, 126.14 -85.81 M127.11 -85.7 C128.7 -84.52, 132.81 -84.99, 140.33 -80.69 M125.63 -85.29 C129.69 -84.66, 131.79 -83.08, 140.94 -81.11 M140.46 -81.43 C140.46 -81.43, 140.46 -81.43, 140.46 -81.43 M140.46 -81.43 C140.46 -81.43, 140.46 -81.43, 140.46 -81.43" stroke="#000000" stroke-width="4" fill="none"></path></g></g><g stroke-linecap="round"><g transform="translate(1409.9040397463646 350.8297800910559) rotate(0 40.63333920293957 -50.551609002654004)"><path d="M1.02 -0.27 C4.33 -13.6, 7.99 -64.34, 20.97 -80.8 C33.95 -97.25, 69.01 -95.98, 78.9 -99 M0.1 -1.46 C3.23 -14.51, 6.98 -62.68, 20.49 -79.24 C34 -95.81, 71.14 -97.23, 81.17 -100.83" stroke="#000000" stroke-width="4" fill="none"></path></g><g transform="translate(1409.9040397463646 350.8297800910559) rotate(0 40.63333920293957 -50.551609002654004)"><path d="M79.44 -101.31 L70.17 -91.1 L64.91 -104.75 L81.53 -101.74" stroke="none" stroke-width="0" fill="#000000" fill-rule="evenodd"></path><path d="M80.83 -99.73 C76.45 -98.71, 72.93 -93.42, 70.52 -90.9 M81.35 -101.55 C79 -98.57, 75 -96.47, 68.8 -92.51 M68.65 -90.58 C68.35 -93.57, 66.97 -96.82, 65.97 -105.12 M69.07 -92.14 C68.35 -95.5, 66.98 -99.3, 66.88 -104.84 M67 -102.9 C69.74 -103.92, 74.32 -101.75, 81.81 -99.48 M66.56 -103.85 C70.38 -103.48, 74.25 -102.42, 81.6 -101.31 M81.17 -100.83 C81.17 -100.83, 81.17 -100.83, 81.17 -100.83 M81.17 -100.83 C81.17 -100.83, 81.17 -100.83, 81.17 -100.83" stroke="#000000" stroke-width="4" fill="none"></path></g></g><g stroke-linecap="round"><g transform="translate(1670 350) rotate(0 0.06984624878502643 -30.694294113744945)"><path d="M-0.7 0.29 C-0.89 -9.79, 0.05 -49.85, -0.03 -59.71 M1.13 -0.61 C0.69 -11.13, -0.99 -51.68, -0.99 -61.68" stroke="#000000" stroke-width="4" fill="none"></path></g><g transform="translate(1670 350) rotate(0 0.06984624878502643 -30.694294113744945)"><path d="M-0.13 -60.67 L6.51 -47.72 L-8.89 -46.46 L-1.58 -62.01" stroke="none" stroke-width="0" fill="#000000" fill-rule="evenodd"></path><path d="M-0.63 -61.71 C2.06 -57.82, 5.73 -50.95, 4.89 -48.2 M-1.31 -61.46 C0.28 -57.47, 2.07 -54.31, 4.99 -48.1 M6.69 -47.32 C2.3 -48.74, -0.6 -48.02, -8.07 -48.05 M5.74 -48.57 C1.42 -47.66, -3.17 -48.33, -6.38 -47.53 M-7.49 -46.5 C-5.08 -51.77, -2.32 -57.1, 0.49 -60.98 M-7.05 -47.4 C-4.1 -52.52, -2.11 -57.16, -1.09 -61.4 M-0.99 -61.68 C-0.99 -61.68, -0.99 -61.68, -0.99 -61.68 M-0.99 -61.68 C-0.99 -61.68, -0.99 -61.68, -0.99 -61.68" stroke="#000000" stroke-width="4" fill="none"></path></g></g><g stroke-linecap="round"><g transform="translate(2030 350) rotate(0 89.03738221690526 -40.03267281399121)"><path d="M0.03 -0.57 C9.83 -10.65, 29.03 -47.9, 58.94 -61.08 C88.85 -74.26, 159.39 -76.7, 179.48 -79.65 M-1.41 1.75 C8.74 -8.17, 31.12 -46.18, 61.1 -60.11 C91.08 -74.03, 158.71 -78.37, 178.45 -81.81" stroke="#000000" stroke-width="4" fill="none"></path></g><g transform="translate(2030 350) rotate(0 89.03738221690526 -40.03267281399121)"><path d="M177.99 -83.27 L167.71 -73.17 L163.36 -87.18 L179.84 -80.19" stroke="none" stroke-width="0" fill="#000000" fill-rule="evenodd"></path><path d="M177.73 -83.13 C173.09 -79.96, 170.91 -77.41, 167.25 -74.2 M178.09 -82.32 C173.67 -78.23, 169.53 -75.98, 165.41 -73.74 M166.38 -74.98 C164.29 -77.53, 164.22 -81.13, 165.32 -86.38 M166.02 -73.25 C164.81 -77.4, 165.38 -80.58, 164.52 -86.11 M165.02 -87.37 C167.22 -85.12, 174.24 -82.26, 178.97 -80.79 M163.62 -86.77 C169.69 -85.06, 174.13 -83.66, 177.79 -82.06 M178.45 -81.81 C178.45 -81.81, 178.45 -81.81, 178.45 -81.81 M178.45 -81.81 C178.45 -81.81, 178.45 -81.81, 178.45 -81.81" stroke="#000000" stroke-width="4" fill="none"></path></g></g></svg>
